<svg xmlns="http://www.w3.org/2000/svg" width="186.182" height="104.468" viewBox="0 0 186.182 104.468">
  <g id="Group_236" data-name="Group 236" transform="translate(4107.217 -2065.795)">
    <g id="Group_234" data-name="Group 234" transform="translate(-4107.217 2065.795)">
      <path id="Path_2225" data-name="Path 2225"
            d="M-3002.814,2092.28q-3.823.007-7.646.018a.788.788,0,0,0-.646.316c-.065.08-.123.166-.183.25l-12.638,17.685a4.3,4.3,0,0,1-.261.356c-.17.194-.263.2-.43.008-.193-.222-.361-.465-.548-.693a.307.307,0,0,1,.031-.467c.187-.187.368-.381.557-.568a25.791,25.791,0,0,0,5.631-8.38,21.742,21.742,0,0,0,1.755-7.57,23.6,23.6,0,0,0-.192-5.151,21.958,21.958,0,0,0-1.428-5.311c-.7-1.571-1.425-3.135-2.182-4.681a13.583,13.583,0,0,0-3.769-4.675,50.908,50.908,0,0,0-5.21-3.484,55.324,55.324,0,0,0-5.745-2.806,18.776,18.776,0,0,0-6.226-1.307,16.009,16.009,0,0,0-2.245.061c-.308.013-.615.073-.923.084a27.177,27.177,0,0,0-3.557.342,29.959,29.959,0,0,0-6.849,1.955,26.557,26.557,0,0,0-7.273,4.448,33.023,33.023,0,0,0-5.146,5.866,14.455,14.455,0,0,0-2.012,3.715c-.3.921-.559,1.861-.77,2.807-.275,1.233-.508,2.478-.716,3.724-.1.579-.085,1.175-.13,1.761-.024.313-.07.347-.378.345-.4,0-.8-.018-1.191,0-.691.034-1.381.119-2.072.132a14.279,14.279,0,0,0-3.728.629,12.958,12.958,0,0,0-5.188,2.727,11.326,11.326,0,0,0-3.462,5.536,18.844,18.844,0,0,0-.607,4,18.419,18.419,0,0,0,.682,5.055.412.412,0,0,0,.377.368c.1.013.2.048.3.068,1.759.347,3.523.668,5.275,1.05,1.42.309,2.825.692,4.237,1.039a2.712,2.712,0,0,0,.376.026c-.157-.119-.221-.174-.291-.221a18.193,18.193,0,0,1-2.289-1.871,9.6,9.6,0,0,1-3.052-5.731,8.336,8.336,0,0,1,.9-5.262,7.556,7.556,0,0,1,6.491-3.945,26.811,26.811,0,0,1,2.955.065c.785.025.792-.129.993.885.126.635.207,1.278.32,1.915a16.03,16.03,0,0,0,1.451,4.105,28.889,28.889,0,0,0,6.312,8.552,24.173,24.173,0,0,0,4.62,3.234,26.979,26.979,0,0,0,9.626,3.417l1.615.238c.341.05.353.064.366.418,0,.1,0,.206,0,.31v5.215q0,5.481,0,10.961c0,.168.012.338.02.5h3.543v-8.5q0-4.044,0-8.088c0-.646.05-.689.708-.705a9.262,9.262,0,0,0,1.234-.06c1.1-.174,2.206-.355,3.3-.586a18.047,18.047,0,0,0,3.72-1.079c1.206-.543,2.417-1.078,3.626-1.616.409-.182.415-.18.678.19q2.085,2.936,4.172,5.871c.082.115.173.225.318.413a3.108,3.108,0,0,1,.166-.264c1.066-1.353,2.226-2.642,3.187-4.066,3.27-4.846,6.469-9.74,9.694-14.615q1.817-2.745,3.634-5.488c.09-.135.151-.314.4-.4v3.257q0,1.635,0,3.27,0,1.613,0,3.227,0,1.635,0,3.271,0,1.614,0,3.227v3.271q0,1.613,0,3.226,0,1.635,0,3.271v6.5c0,1.076-.005,2.151,0,3.227s-.031,2.169.024,3.247h6.059v-42.02A3.2,3.2,0,0,0-3002.814,2092.28Zm-16.674-8.128a2.621,2.621,0,0,1,.105-1.207,22.757,22.757,0,0,1,1.243,11.045,23.631,23.631,0,0,1-5.907,13.01c.068-.14.135-.281.205-.42a20.687,20.687,0,0,0,2.166-6.541,20.917,20.917,0,0,0,.082-4.1c-.041-.629-.15-1.254-.183-1.883a2.347,2.347,0,0,1,.136-.86,12.008,12.008,0,0,1,.536-1.257,17.125,17.125,0,0,0,1.323-4.192A14.413,14.413,0,0,0-3019.488,2084.152Zm-5.4-9.835a13.869,13.869,0,0,1,3.267,4.246,12.205,12.205,0,0,1,1.386,5.953c-.026.411,0,.825-.027,1.236a7.2,7.2,0,0,1-.129,1,23.252,23.252,0,0,1-1.145,3.888,4.383,4.383,0,0,1-.657,1.264c-.074-.18-.139-.315-.186-.457a29.893,29.893,0,0,0-1.929-4.542,26.713,26.713,0,0,0-6.254-7.758c-.179-.153-.348-.318-.529-.468a.541.541,0,0,1-.153-.706,11.561,11.561,0,0,0,.692-2.549,6.693,6.693,0,0,0-.348-3.6c-.153-.4-.3-.8-.492-1.307.261.072.416.1.563.156A17.243,17.243,0,0,1-3024.89,2074.316Zm-33.034,13.569c.053.837.076,1.676.124,2.513.027.47.081.938.117,1.407.01.126,0,.255,0,.391l-.61.107c-.017.126-.039.239-.045.353-.025.48-.015.488.44.585.119.025.235.065.353.1l0,.115a3.63,3.63,0,0,1-.659.112,29.1,29.1,0,0,1-4.009-.2c-.4-.059-.44-.094-.448-.5,0-.22,0-.44,0-.712-.462-.094-.915-.2-1.37-.277q-1.3-.233-2.606-.446a1.92,1.92,0,0,1-1.111-.579,7.084,7.084,0,0,1-1.483-2.381.805.805,0,0,1,.054-.637,25.046,25.046,0,0,1,2.26-4.336,26.96,26.96,0,0,1,4.427-5.079q.5-.463,1.015-.919a1.932,1.932,0,0,1,.2-.136c.1.369.2.7.276,1.044a2.652,2.652,0,0,0,1.236,1.7,4.674,4.674,0,0,0,1.506.605c.186.044.376.073.557.132.273.088.34.207.3.5-.11.727-.236,1.451-.334,2.179A22.232,22.232,0,0,0-3057.924,2087.885Zm7.959-11.956c-.645-.489-1.306-.956-1.957-1.438-.634-.469-1.354-.816-1.961-1.318a.888.888,0,0,1,.717-.683,5.554,5.554,0,0,1,1.439-.182c1.782.007,3.559.121,5.333.293a5.4,5.4,0,0,1,.783.13c.3.073.405.2.371.5a3.778,3.778,0,0,1-.224.979,3.149,3.149,0,0,1-.517.868c-.669.781-1.369,1.536-2.084,2.332C-3048.723,2076.9-3049.337,2076.406-3049.965,2075.929Zm1.36,1.836c-.82.43-1.558.853-2.325,1.209a13.825,13.825,0,0,1-3.836,1.269,10.082,10.082,0,0,1-1.54.06c-.306,0-.393-.131-.328-.43.068-.316.169-.624.259-.935a23.652,23.652,0,0,1,1.935-4.87c.071-.128.14-.257.23-.424A43.392,43.392,0,0,1-3048.6,2077.765Zm-2.609-6.116a1.665,1.665,0,0,1,.248-.143c1.228-.4,2.458-.8,3.684-1.2a.8.8,0,0,1,.75.107,3.117,3.117,0,0,1,1.313,1.713Zm-1.507-.113a1.531,1.531,0,0,1,.153-.33c.388-.421.775-.842,1.181-1.245a.8.8,0,0,1,.416-.206,9.751,9.751,0,0,1,2.848.016,1.113,1.113,0,0,1,.238.129Zm-.726.181a.635.635,0,0,1-.343.17,13.256,13.256,0,0,1-1.476.245,7.179,7.179,0,0,1-1.109-.075.539.539,0,0,1,.32-.434,16.332,16.332,0,0,1,3.458-1.526,1.044,1.044,0,0,1,.213-.05,2.732,2.732,0,0,1,.318.015C-3052.565,2070.664-3053,2071.2-3053.447,2071.717Zm-2.324,1.054c.037.271-.132.332-.26.413q-.727.459-1.459.907-.939.576-1.882,1.146c-.107.065-.222.119-.333.178a3.6,3.6,0,0,1,1.488-2.055A5.015,5.015,0,0,1-3055.771,2072.771Zm-.352,1.135c.27-.149.543-.293.815-.439a.856.856,0,0,1,.757-.08,25.138,25.138,0,0,0-2.675,6.891,3.642,3.642,0,0,1-2.686-1.433,2.483,2.483,0,0,1-.444-1.711,1.107,1.107,0,0,1,.473-.846A33.407,33.407,0,0,1-3056.122,2073.906Zm-1.164,9.978c.067-.8.188-1.606.294-2.407.054-.409.147-.5.583-.489a13.242,13.242,0,0,0,5.873-1.385c.689-.323,1.335-.742,2-1.12.126-.072.245-.158.4-.262a77.229,77.229,0,0,1,8.215,8.481c-.535.349-1.021.711-1.546,1q-2.236,1.244-4.5,2.437a16.543,16.543,0,0,1-1.568.706c-.968.388-1.939.771-2.922,1.122a3.849,3.849,0,0,1-1.2.251c-1.664.031-3.328.02-4.992.019-.394,0-.4-.027-.46-.424A34.417,34.417,0,0,1-3057.286,2083.884Zm14.86-1.029a52.1,52.1,0,0,0-4.929-4.805c-.088-.074-.183-.142-.305-.236.346-.306.632-.578.938-.824a7.242,7.242,0,0,0,2.152-3.023,2.536,2.536,0,0,0,.127-.464c.084-.433.206-.518.635-.416a29.138,29.138,0,0,1,7.354,2.788,32.647,32.647,0,0,1,3.516,2.11c.635.461.625.444.248,1.156a18.76,18.76,0,0,1-3.686,4.6,25.951,25.951,0,0,1-2.545,2.25c-.429.319-.506.318-.867-.1C-3040.666,2084.875-3041.521,2083.842-3042.426,2082.855Zm10.773-3.825c.345.278.679.516.979.791a25.6,25.6,0,0,1,5.981,7.688,27.03,27.03,0,0,1,1.834,5,1.239,1.239,0,0,1-.147,1.008,24.787,24.787,0,0,1-3.954,5.014c-.777.762-1.6,1.479-2.4,2.215-.065.06-.135.114-.2.169a.233.233,0,0,1-.4-.074c-.065-.115-.129-.232-.194-.347-1.122-2-2.2-4.029-3.378-6a68.5,68.5,0,0,0-4.823-6.857c-.116-.15-.233-.3-.386-.495A24.638,24.638,0,0,0-3031.653,2079.03Zm1.667-8.639c-.971-.344-2.075-.412-2.8-1.4A6.776,6.776,0,0,1-3029.986,2070.391Zm-2.87-.068a6.441,6.441,0,0,1,1.569,3.988,4.088,4.088,0,0,1-.107,1.091c-.141.66-.323,1.312-.493,1.967-.035.135-.087.267-.157.474-.245-.143-.411-.233-.572-.333-1.211-.753-2.406-1.533-3.634-2.257a25.187,25.187,0,0,0-5.367-2.209,10.6,10.6,0,0,0-2.168-.571.667.667,0,0,1-.6-.506c-.032-.1-.073-.192-.1-.291a2.844,2.844,0,0,0-.987-1.481c-.068-.052-.125-.117-.257-.242.52-.1.968-.193,1.42-.264.711-.113,1.424-.208,2.136-.312.073-.01.145-.03.218-.033,1.073-.042,2.146-.092,3.219-.115a10.237,10.237,0,0,1,1.1.082c.689.059,1.382.087,2.064.189.752.114,1.5.282,2.238.464A1.089,1.089,0,0,1-3032.856,2070.323Zm-9.1-3.77c.877.091,1.756.187,2.628.317a10.766,10.766,0,0,1,3.066,1.081c.621.3,1.226.634,1.833.96a.535.535,0,0,1,.227.309,2.952,2.952,0,0,1-.408,0c-.364-.051-.724-.124-1.088-.174a20.923,20.923,0,0,0-4.75-.219,29.083,29.083,0,0,0-5.415.709,1.86,1.86,0,0,1-1.125-.066,7.351,7.351,0,0,0-2.249-.395,7.943,7.943,0,0,0-.875.093,2.458,2.458,0,0,1-.258,0,6.678,6.678,0,0,1,1.731-1.293A10.928,10.928,0,0,1-3041.955,2066.553Zm-11.545,1.8c1.526-.664,5.249-1.583,5.968-1.429-.333.18-.663.362-1,.538a11.273,11.273,0,0,0-2.035,1.315,3.439,3.439,0,0,1-1.5.72,13.563,13.563,0,0,0-4.447,1.865,1.128,1.128,0,0,1-1.073.148c-.469-.166-.955-.279-1.53-.442A41.757,41.757,0,0,1-3053.5,2068.354Zm-10.857,6.93a27.685,27.685,0,0,1,3.639-3.13,2.315,2.315,0,0,1,2.2-.361c.285.1.585.148.962.24a6.139,6.139,0,0,1-1.449,1.006,7.216,7.216,0,0,1-.776.31,18.675,18.675,0,0,0-3.208,1.438c-.4.218-.8.428-1.208.638-.085.044-.179.069-.366.14A2.666,2.666,0,0,1-3064.356,2075.283Zm-3.2,4.088c.34-.551.674-1.106,1.032-1.645a4.261,4.261,0,0,1,1.23-1.189,24.857,24.857,0,0,1,5.285-2.712,4.461,4.461,0,0,1,.467-.113c-.008.08,0,.117-.015.135a12.942,12.942,0,0,0-1.141,1.882,5.3,5.3,0,0,1-.846,1.064c-.81.793-1.647,1.558-2.484,2.324a22.093,22.093,0,0,0-4.275,5.367c-.388.676-.783,1.348-1.221,2.1a2.385,2.385,0,0,1-.065-.329A12.29,12.29,0,0,1-3067.56,2079.372Zm-2.31,10.765.1-.037.666.892c-.012.03-.024.058-.036.087l-.843-.115C-3069.945,2090.668-3069.908,2090.4-3069.87,2090.137Zm-.783-.729a.714.714,0,0,1,.2-.755A.753.753,0,0,1-3070.653,2089.408Zm3.02,13.209a11.553,11.553,0,0,1-1.819-3.706q-.383-1.174-.678-2.375a6.459,6.459,0,0,1-.13-1.223c-.013-.3.124-.4.412-.333.371.089.737.2,1.1.3a31.613,31.613,0,0,1,5.534,2.169c.131.065.266.124.4.183a.548.548,0,0,0,.123.015c.008-.107.024-.217.024-.326,0-.854,0-1.708,0-2.563,0-.418.056-.487.454-.438a31.421,31.421,0,0,0,4.455.127c.456-.008.523.052.635.5a49.131,49.131,0,0,0,1.6,5.5,28.929,28.929,0,0,0,3.983,7.348,5.1,5.1,0,0,1,.823,1.281,29.555,29.555,0,0,1-3.636-.113c-.96-.141-1.927-.233-2.885-.384a18.355,18.355,0,0,1-5.6-1.945A14.866,14.866,0,0,1-3067.634,2102.617Zm20.655,13.083c-.02.369-.09.428-.467.381-.2-.026-.407-.06-.61-.093a28.6,28.6,0,0,1-10.989-3.992,26.555,26.555,0,0,1-6.3-5.565c-.054-.065-.1-.139-.146-.209l.067-.084a3.742,3.742,0,0,1,.448.247,19.177,19.177,0,0,0,6.052,2.8,26.127,26.127,0,0,0,8.468.958,1.707,1.707,0,0,1,1.414.525c.532.549,1.111,1.054,1.68,1.566a1.051,1.051,0,0,1,.368.855c-.012.795.005,1.59.011,2.386C-3046.977,2115.553-3046.975,2115.627-3046.979,2115.7Zm-1.684-5.536c.5-.359,1.107-.024,1.636-.336v1.83A8.7,8.7,0,0,1-3048.662,2110.165Zm1.718-6.742v4.418c0,.074,0,.147,0,.22,0,.612-.045.636-.635.7-.481.052-.958.149-1.434.236a1.116,1.116,0,0,1-1.236-.472,50.632,50.632,0,0,1-3.009-4.676,34.086,34.086,0,0,1-3.031-7.889c-.094-.4-.22-.794-.319-1.193-.08-.322-.041-.392.288-.447a8.821,8.821,0,0,1,2.931-.244,14.167,14.167,0,0,1,4.124,1.225,3.93,3.93,0,0,1,2.268,3.484c.08,1.543.058,3.091.081,4.637Zm7.605,12.375q-1.683.19-3.366.378a2.842,2.842,0,0,1-.308.02c-.286,0-.341-.038-.351-.319-.012-.363,0-.726,0-1.142l4.039.98Zm8.064-2.824a40.031,40.031,0,0,1-6.149,2.4,3.788,3.788,0,0,1-1.525.114,15.18,15.18,0,0,1-3.9-1.048.75.75,0,0,1-.521-.771c.007-.677,0-1.354,0-2.03h-.008c0-.677,0-1.354,0-2.031,0-.372.038-.436.4-.52a43.015,43.015,0,0,0,6.807-2.514c.645-.269.707-.261,1.12.319q1.954,2.753,3.9,5.511C-3030.924,2112.717-3030.941,2112.823-3031.275,2112.973Zm-12.1-16.979c0-.213.026-.427.041-.64l.147-.022,6.943,9.848a.829.829,0,0,1-.148.117,44.355,44.355,0,0,1-6.165,2.362c-.775.215-.819.193-.819-.625Q-3043.379,2101.514-3043.376,2095.994Zm12.15,6.033a.842.842,0,0,1-.313-.286q-1.748-2.3-3.487-4.615c-1.088-1.447-2.18-2.891-3.245-4.354a1.1,1.1,0,0,0-1-.5c-2.591.019-5.182.021-7.774.026-.183,0-.366-.024-.549-.037-.005-.032-.01-.063-.015-.095l.42-.206c1.451-.712,2.926-1.379,4.345-2.151,1.056-.575,2.04-1.285,3.054-1.935a1.3,1.3,0,0,1,.332-.212.527.527,0,0,1,.355.06c.095.054.151.176.225.268a96.855,96.855,0,0,1,5.933,8.612,47.7,47.7,0,0,1,2.427,4.252,3.349,3.349,0,0,1,.15.319.446.446,0,0,1,.03.211C-3030.367,2101.569-3031.063,2102.092-3031.226,2102.027Zm2.585,3.419a8.838,8.838,0,0,1-1.711-2.334l.566-.41c.318.231.356.589.495.885s.262.592.371.9A2.049,2.049,0,0,1-3028.641,2105.446Zm2.281,3.152a6.418,6.418,0,0,1-1.592-2.711c-.263-.945-.668-1.851-1.012-2.774-.036-.1-.083-.188-.124-.283-.226-.521-.225-.564.211-.939a33.735,33.735,0,0,0,3.594-3.459,26.246,26.246,0,0,0,2.485-3.323c.067-.108.147-.208.284-.4a18.862,18.862,0,0,1-.052,4.88A19.414,19.414,0,0,1-3026.359,2108.6Z"
            transform="translate(3148.258 -2065.795)" fill="#285278"/>
      <path id="Path_2226" data-name="Path 2226"
            d="M-4018.538,2531.391a8.927,8.927,0,0,0-2.062-3.561,18.02,18.02,0,0,0-3.935-3.19,44.2,44.2,0,0,0-8.127-3.838,84.224,84.224,0,0,0-13.3-3.608c-1.586-.311-3.191-.529-4.788-.786-.783-.127-1.566-.267-2.353-.367-1.094-.139-2.2-.21-3.288-.378a36.68,36.68,0,0,0-4.214-.418,1,1,0,0,1-1-.694q-3.192-7.708-6.42-15.4c-.465-1.113-.945-2.22-1.4-3.34a.7.7,0,0,0-.73-.509c-.073,0-.147,0-.221,0q-7.934,0-15.867,0c-.143,0-.286.015-.473.024,0,.245-.013.462,0,.677.023.282.1.352.381.4,1.265.19,2.534.354,3.794.572s2.51.488,3.764.738a6.651,6.651,0,0,1,1.989.7c.505.285.581.477.485,1.043a9.292,9.292,0,0,1-.756,2.345q-2.927,6.357-5.859,12.712c-.043.094-.091.185-.14.275a.855.855,0,0,1-.866.489,2.483,2.483,0,0,0-.523.037c-.422.063-.841.142-1.262.206-1.09.166-2.188.291-3.271.5-3.206.606-6.4,1.255-9.568,2.056-2.75.695-5.506,1.359-8.258,2.04-.142.035-.279.086-.418.13l.012.1a2.112,2.112,0,0,0,.5.044c.42-.06.841-.137,1.254-.237a2.056,2.056,0,0,1,1.256-.008.863.863,0,0,0,.433.023c1.246-.214,2.489-.44,3.734-.659.9-.157,1.794-.328,2.7-.46q1.9-.277,3.807-.5c1.446-.17,2.894-.329,4.344-.464,1.143-.106,2.29-.176,3.437-.247.39-.024.782,0,1.245,0-.078.221-.127.4-.2.566q-1.141,2.488-2.29,4.973-3.391,7.334-6.784,14.667c-.065.141-.121.288-.208.5.217.013.372.03.527.03,1.031,0,2.063-.022,3.093.012a.858.858,0,0,0,.942-.586c.988-2.218,2.017-4.418,3.019-6.63q2.989-6.6,5.956-13.2a.787.787,0,0,1,.831-.549c2.062.018,4.126-.032,6.187.014,2.282.051,4.562.181,6.843.269a.6.6,0,0,1,.594.434c.2.508.386,1.018.594,1.521q3.138,7.587,6.28,15.173c.411.993.818,1.987,1.21,2.987.125.319.274.525.664.5.305-.017.615.055.923.068a5.633,5.633,0,0,1,2.535.676c.54.3,1.053.649,1.591.953.421.239.86.447,1.294.661a1.683,1.683,0,0,0,.319.078c-3.05-7.523-6.282-14.9-9.341-22.4a1.428,1.428,0,0,1,.346-.083c.293.018.587.047.879.086,1.151.157,2.3.353,3.453.475,2.125.226,4.205.7,6.308,1.052.984.164,1.949.435,2.926.647a66.621,66.621,0,0,1,10.083,3.023,32.347,32.347,0,0,1,6.772,3.492,15.019,15.019,0,0,1,3.526,3.314,6.206,6.206,0,0,1,1.175,5.417,7.77,7.77,0,0,1-2.075,3.594,23.644,23.644,0,0,1-5.141,4.079,55.126,55.126,0,0,1-7.15,3.338c-.183.072-.364.146-.546.22l.026.1c.148-.028.3-.045.445-.086a72.5,72.5,0,0,0,10.025-3.5,29.469,29.469,0,0,0,6.76-4.049,12.407,12.407,0,0,0,2.736-3.1A6.355,6.355,0,0,0-4018.538,2531.391Zm-49.4-16.577c-2.8-.037-5.6-.078-8.4-.1-.529-.005-1.057.054-1.586.075-.277.011-.554,0-.9,0,.073-.194.124-.354.193-.506q2.41-5.306,4.823-10.611c.3-.667.6-1.334.948-2.1l5.45,13.248C-4067.624,2514.814-4067.778,2514.815-4067.934,2514.814Z"
            transform="translate(4107.217 -2469.986)" fill="#285278"/>
      <path id="Path_2227" data-name="Path 2227"
            d="M-1545.355,2549.441c-.144,2.646-.288,5.293-.436,7.994-8.8.062-17.579.032-26.413.042-.006-.19-.015-.359-.015-.528q0-4.044,0-8.088,0-13.37.009-26.74a3.507,3.507,0,0,0-1.3-2.817,8.374,8.374,0,0,0-2.668-1.432,22.482,22.482,0,0,0-3.638-.882c-.968-.18-1.942-.331-2.948-.5v-.852a.2.2,0,0,1,.021-.023c.011-.01.023-.024.035-.024q17.656-.012,35.311-.022c.117,0,.233.01.4.019.051.441.13.874.147,1.31.072,1.869.126,3.739.186,5.609,0,.073,0,.147,0,.221,0,.214-.1.341-.312.343-.427.006-.855.017-1.281-.007-.348-.019-.46-.134-.532-.481-.09-.432-.16-.868-.252-1.3a6.445,6.445,0,0,0-.192-.679,3.368,3.368,0,0,0-2.592-2.391,11.2,11.2,0,0,0-2.444-.333q-4.286-.028-8.573,0a8.75,8.75,0,0,0-1.532.17,2,2,0,0,0-1.825,1.866,4.131,4.131,0,0,0-.058.7q-.013,6.961-.019,13.921c0,.088,0,.177,0,.265a.343.343,0,0,0,.356.368c.146.011.294.008.441.008l10.342-.03c.161,0,.323.006.484.019a.345.345,0,0,1,.353.374q.006,1.171,0,2.342a.327.327,0,0,1-.322.352,3.7,3.7,0,0,1-.4.019c-1.252,0-2.5-.012-3.756-.011q-3.4,0-6.806.014c-.2,0-.405.027-.638.044a4.338,4.338,0,0,0-.06.5q0,6.894,0,13.79a2.977,2.977,0,0,0,.362,1.44,1.5,1.5,0,0,0,1.146.8,16.786,16.786,0,0,0,2.639.2q4.177.012,8.353.032a6.88,6.88,0,0,0,3.587-.926,10.6,10.6,0,0,0,2.719-2.234c.586-.68,1.136-1.391,1.7-2.089.108-.134.216-.268.323-.4Z"
            transform="translate(1731.537 -2489.063)" fill="#285278"/>
      <path id="Path_2228" data-name="Path 2228"
            d="M-3872.773,3768.222c-.1.006-.2.014-.293.018q-2.737.123-5.473.245c-.883.038-1.766.067-2.649.108-2.515.115-5.031.242-7.547.349-1.81.077-3.621.122-5.432.195-1.766.071-3.531.16-5.3.238-1.589.071-3.178.135-4.768.207-1.692.076-3.383.157-5.075.235q-2.317.105-4.635.206l-5.341.24c-1.515.068-3.031.132-4.546.2q-2.516.115-5.031.237-2.119.1-4.237.2c-1.515.075-3.029.166-4.545.23-1.294.055-2.591.071-3.886.126-1.486.064-2.97.156-4.455.231-1.412.072-2.824.146-4.237.2q-4.173.171-8.345.326c-.4.015-.795.017-1.192.038a3.99,3.99,0,0,0-.92.089,7.063,7.063,0,0,1-2.014.16q-.619,0-1.238,0a2.892,2.892,0,0,1-1.173-.134,1.624,1.624,0,0,0-.568-.057c-1.516-.052-3.033-.089-4.549-.154-1.559-.066-3.117-.159-4.676-.24-.632-.034-1.264-.081-1.9-.1-1.443-.044-2.886-.057-4.329-.114-1.309-.053-2.617-.149-3.925-.225-.6-.035-1.205-.079-1.809-.1-2.767-.1-5.534-.188-8.3-.3q-4.195-.163-8.388-.356c-2.545-.119-5.088-.269-7.633-.39-1.236-.058-2.474-.066-3.71-.121-1.456-.065-2.911-.157-4.367-.233-.765-.04-1.53-.073-2.3-.1-1.736-.07-3.474-.131-5.209-.206-2.3-.1-4.59-.212-6.886-.317-1.559-.071-3.119-.144-4.679-.207-2.354-.095-4.71-.169-7.063-.277-1.663-.076-3.322-.212-4.984-.287-1.516-.069-3.033-.094-4.55-.136-.263-.007-.526,0-.79,0,0-.028.008-.056.013-.084h182.918C-3872.775,3768.187-3872.774,3768.2-3872.773,3768.222Z"
            transform="translate(4058.743 -3667.846)" fill="#285278"/>
      <path id="Path_2229" data-name="Path 2229"
            d="M-1776.438,3505.991c-.055.192-.089.331-.134.466-.585,1.741-1.176,3.481-1.753,5.225a.479.479,0,0,1-.474.374,1.079,1.079,0,0,1-1.113-.544,9,9,0,0,1-.964-2.169c-.043-.154-.046-.317-.079-.475-.05-.236-.11-.469-.165-.7l-.153,0c-.066.173-.14.345-.2.521-.3.924-.586,1.849-.879,2.774-.035.112-.071.225-.115.333a.411.411,0,0,1-.41.278h-.743a3.139,3.139,0,0,1,.073-.345c.571-1.715,1.153-3.426,1.711-5.146a.676.676,0,0,1,.721-.563c.334.007.668,0,1.041,0a8.182,8.182,0,0,0,.919,4.738c.039-.1.055-.142.068-.181.391-1.186.788-2.37,1.17-3.558a4.856,4.856,0,0,0,.146-.734.3.3,0,0,1,.326-.288C-1777.12,3505.99-1776.8,3505.991-1776.438,3505.991Z"
            transform="translate(1920.551 -3421.118)" fill="#285278"/>
      <path id="Path_2230" data-name="Path 2230"
            d="M-3248.342,3507.527c-.073.273-.126.532-.209.78q-.776,2.323-1.568,4.64c-.08.232-.073.566-.439.583a1.117,1.117,0,0,1-1.074-.36,5.8,5.8,0,0,1-1.123-2.561c-.055-.343-.141-.681-.212-1.021l-.142-.016c-.264.84-.536,1.677-.789,2.521a11.306,11.306,0,0,0-.267,1.114c-.044.228-.144.333-.383.321-.277-.013-.556,0-.909,0,.656-2.043,1.324-4.025,1.981-6h1.5c0,.2.005.388,0,.574a8.866,8.866,0,0,0,.356,2.7,7.944,7.944,0,0,0,.431,1.06.258.258,0,0,0,.186.141c.067-.005.145-.088.186-.157a1.329,1.329,0,0,0,.1-.29l1.135-3.667c.035-.113.073-.224.116-.358Z"
            transform="translate(3305.653 -3422.557)" fill="#285278"/>
      <path id="Path_2231" data-name="Path 2231"
            d="M-1587.963,3507.248a.767.767,0,0,0-.856-.522c-.364.035-.735.007-1.1.007h-2.24c-.042.145-.072.241-.1.339-.167.609-.312,1.225-.505,1.826-.328,1.021-.687,2.032-1.03,3.048a3.3,3.3,0,0,0-.222.961c.271,0,.505.014.738,0,.572-.04,1.142-.12,1.714-.135a4.3,4.3,0,0,0,2.652-1.05A3.635,3.635,0,0,0-1587.963,3507.248Zm-2.849,4.446c-.547.157-1.115.244-1.783.387a4.7,4.7,0,0,1,.09-.464q.563-1.787,1.135-3.573c.152-.471.185-.491.692-.5.4-.005.8-.008,1.193,0,.361,0,.491.1.606.454A2.967,2.967,0,0,1-1590.812,3511.694Z"
            transform="translate(1742.124 -3421.804)" fill="#285278"/>
      <path id="Path_2232" data-name="Path 2232"
            d="M-1063.483,3507.215a.6.6,0,0,0-.615-.378c-1.06.017-2.12.006-3.179.008a2.223,2.223,0,0,0-.249.023c-.651,2.034-1.291,4.032-1.951,6.092.725,0,1.371-.007,2.018,0a4.839,4.839,0,0,0,2.242-.571A3.687,3.687,0,0,0-1063.483,3507.215Zm-.756,2.273a2.547,2.547,0,0,1-1.052,1.818,4.873,4.873,0,0,1-2.717.821,2.867,2.867,0,0,1,.063-.375c.4-1.2.8-2.4,1.211-3.6.155-.451.229-.5.708-.5.368-.007.737-.013,1.1,0a.625.625,0,0,1,.693.686A8.088,8.088,0,0,1-1064.239,3509.488Z"
            transform="translate(1248.496 -3421.914)" fill="#285278"/>
      <path id="Path_2233" data-name="Path 2233"
            d="M-1240.075,3510.831a2.207,2.207,0,0,1-.649-1.337c.328-.161.627-.286.9-.45a1.964,1.964,0,0,0,.8-2.638.834.834,0,0,0-.877-.524c-.514.025-1.03.019-1.545.023-.366,0-.732,0-1.13,0l-1.959,6.039h1.2c.174-.608.347-1.2.515-1.793.114-.4.164-.444.575-.43.322.011.4.071.516.378.035.1.056.2.1.292a2.311,2.311,0,0,0,2.8,1.607c.065-.222.134-.458.211-.717C-1239.149,3511.208-1239.7,3511.275-1240.075,3510.831Zm-2.358-1.927c.223-.659.428-1.268.636-1.876a.4.4,0,0,1,.442-.283c.308.008.617,0,.925,0a.443.443,0,0,1,.481.408.989.989,0,0,1-.2.873,1.974,1.974,0,0,1-.657.559A4.808,4.808,0,0,1-1242.432,3508.9Z"
            transform="translate(1413.24 -3421.013)" fill="#285278"/>
      <path id="Path_2234" data-name="Path 2234"
            d="M-2639.74,3507.783a62.446,62.446,0,0,1-1.9,5.966h-1.079c.087-.3.154-.567.242-.828.151-.445.323-.884.472-1.329.132-.392.066-.485-.33-.489q-.838-.009-1.677,0c-.344,0-.417.05-.518.361-.239.739-.467,1.482-.713,2.271h-1.119l1.929-5.955h1.111c-.043.148-.079.284-.123.417-.174.531-.357,1.058-.524,1.591-.119.375-.057.47.31.475q.838.012,1.677,0c.344-.006.434-.073.538-.409.175-.561.334-1.127.5-1.691.037-.124.08-.247.123-.379Z"
            transform="translate(2732.448 -3422.801)" fill="#285278"/>
      <path id="Path_2235" data-name="Path 2235"
            d="M-3058.324,3510.04a7.858,7.858,0,0,0,.417.824.355.355,0,0,0,.446.194,4.012,4.012,0,0,0,1.456-.709,1.192,1.192,0,0,0,.486-.774h-1.4l.226-.733h2.559a3.348,3.348,0,0,1-.776,1.819,3.766,3.766,0,0,1-1.492,1,13.9,13.9,0,0,1-1.431.436.561.561,0,0,1-.446-.074,3.518,3.518,0,0,1-1.3-3.251,3.3,3.3,0,0,1,2.687-2.7c.851-.155,1.723-.195,2.586-.284a2.354,2.354,0,0,1,.252,0,.277.277,0,0,1,.015.068c-.2.952-.273.965-1.143.974a10.775,10.775,0,0,0-1.448.083A2.425,2.425,0,0,0-3058.324,3510.04Z"
            transform="translate(3121.359 -3420.917)" fill="#285278"/>
      <path id="Path_2236" data-name="Path 2236"
            d="M-1959.387,3510.127a14.167,14.167,0,0,1,.42-2.987c-.388,0-.726.011-1.061,0a.573.573,0,0,0-.522.258q-2.065,2.7-4.138,5.389a2.266,2.266,0,0,0-.148.261c.186.062.339.11.49.164.437.156.544.128.824-.242.257-.34.51-.683.762-1.028a.564.564,0,0,1,.474-.273c.5,0,1,0,1.5,0a.362.362,0,0,1,.4.371,8.319,8.319,0,0,0,.144.825c.085.393.245.491.625.395.169-.043.335-.1.563-.168A11.65,11.65,0,0,1-1959.387,3510.127Zm-1.09.3c-.032.3-.1.36-.384.368-.32.01-.64,0-.972,0a10.237,10.237,0,0,1,1.492-2.062C-1960.39,3509.348-1960.421,3509.887-1960.478,3510.423Z"
            transform="translate(2091.091 -3422.195)" fill="#285278"/>
      <path id="Path_2237" data-name="Path 2237"
            d="M-1420.571,3507.044c-.345,0-.641.022-.931-.006a.836.836,0,0,0-.814.392c-1.17,1.553-2.358,3.091-3.541,4.634-.214.28-.426.56-.671.882.146.052.226.085.309.11a.857.857,0,0,0,1.178-.379c.2-.258.4-.508.573-.783a.673.673,0,0,1,.658-.348c.4.012.8,0,1.193,0,.448,0,.535.073.625.51.047.23.064.467.114.7.072.33.208.431.53.378.226-.037.446-.116.7-.185A11.229,11.229,0,0,1-1420.571,3507.044Zm-1.5,3.612h-1.427l1.471-2.031.125.049C-1421.961,3509.324-1422.016,3509.975-1422.075,3510.656Z"
            transform="translate(1584.505 -3422.099)" fill="#285278"/>
      <path id="Path_2238" data-name="Path 2238"
            d="M-2458.359,3507.59l-.247.767c-.214,0-.43,0-.646,0-.383,0-.766.006-1.148,0a.658.658,0,0,0-.725.509c-.108.378-.241.75-.382,1.184h2.245c-.02.693-.148.833-.765.845-.486.01-.972.01-1.458.007a.455.455,0,0,0-.49.356c-.123.437-.242.875-.378,1.371a2.324,2.324,0,0,0,.363.061c.471.007.942,0,1.413,0h.466c.173.578.01.873-.507.883-1,.021-2,.007-3,.006-.026,0-.052-.023-.126-.058l1.9-5.937Z"
            transform="translate(2560.6 -3422.622)" fill="#285278"/>
      <path id="Path_2239" data-name="Path 2239"
            d="M-3811.549,3507.45c-.033.145-.051.271-.09.389-.1.306-.183.378-.507.384-.5.01-1,0-1.5,0-.467,0-.52.042-.668.479-.126.374-.245.751-.382,1.175a3.6,3.6,0,0,0,1.113.072c.365.011.73,0,1.09,0,.048.637-.124.827-.687.823-.471,0-.942,0-1.412.006-.389.007-.428.037-.544.385s-.225.669-.32,1.008c-.081.29-.013.383.285.39.5.01,1,0,1.5,0h.54a2.424,2.424,0,0,1-.148.578c-.068.125-.229.278-.351.28-1.086.022-2.173.013-3.309.013.652-2.01,1.295-3.99,1.944-5.992Z"
            transform="translate(3834.044 -3422.491)" fill="#285278"/>
      <path id="Path_2240" data-name="Path 2240"
            d="M-2241.26,3507.151c.286.392.6.762.874,1.164s.5.83.742,1.247a.7.7,0,0,1-.151.918,2.963,2.963,0,0,1-1.416.854,3.631,3.631,0,0,1-2.937-.3l.48-.753c.444.094.872.18,1.3.278a1.888,1.888,0,0,0,1.406-.382.326.326,0,0,0,.078-.471,4.395,4.395,0,0,0-.288-.443c-.42-.6-.855-1.2-1.26-1.81-.363-.549-.32-.774.175-1.215a2.907,2.907,0,0,1,1.518-.754c.739-.107,1.482-.189,2.292-.291l-.344.97a10.4,10.4,0,0,0-1.156.1,7.225,7.225,0,0,0-1.173.351C-2241.434,3506.731-2241.461,3506.875-2241.26,3507.151Z"
            transform="translate(2353.941 -3420.364)" fill="#285278"/>
      <path id="Path_2241" data-name="Path 2241"
            d="M-3967.618,3505.37c-.115.324-.205.578-.3.832-.072.2-.246.172-.406.18a8.884,8.884,0,0,0-1.14.076,2.955,2.955,0,0,0-.855.329.4.4,0,0,0-.156.6,2.789,2.789,0,0,0,.313.425,11.573,11.573,0,0,1,.785.953,11.217,11.217,0,0,1,.608,1.167.511.511,0,0,1-.124.6,3.194,3.194,0,0,1-2.973,1.088,5.669,5.669,0,0,1-.94-.226c-.378-.109-.436-.269-.24-.615a2.072,2.072,0,0,1,.147-.22,1.686,1.686,0,0,1,.122-.13c.452.1.9.192,1.339.285a1.7,1.7,0,0,0,1.316-.377.342.342,0,0,0,.094-.506,6.811,6.811,0,0,0-.528-.759,8.287,8.287,0,0,1-1.212-1.888c-.154-.343-.158-.35.114-.6a3.6,3.6,0,0,1,2.324-1.039C-3968.785,3505.526-3968.248,3505.439-3967.618,3505.37Z"
            transform="translate(3981.052 -3420.533)" fill="#285278"/>
      <path id="Path_2242" data-name="Path 2242"
            d="M-2068.871,3506.949l-.271.885c-.184.01-.37.024-.556.03-.25.009-.5.022-.75.015a.577.577,0,0,0-.627.486c-.361,1.166-.747,2.323-1.121,3.485-.112.348-.214.7-.327,1.071h-1.075a2.4,2.4,0,0,1,.21-1.017c.344-1.017.706-2.027,1.049-3.044.1-.288.156-.589.239-.914a8.687,8.687,0,0,0-1.65-.137.4.4,0,0,1-.008-.086c.253-.786.253-.789,1.076-.792,1.133,0,2.266,0,3.4,0C-2069.166,3506.93-2069.05,3506.941-2068.871,3506.949Z"
            transform="translate(2193.594 -3422)" fill="#285278"/>
      <path id="Path_2243" data-name="Path 2243"
            d="M-2773.179,3507.6c-.031.118-.048.188-.068.257-.173.586-.254.644-.868.626-.206-.006-.412-.005-.618,0-.4,0-.517.077-.642.466-.329,1.021-.649,2.044-.976,3.066-.134.42-.275.837-.413,1.256-.1.311-.162.363-.463.358-.248,0-.5-.025-.788-.041.073-.246.131-.466.2-.683.418-1.239.843-2.476,1.26-3.716.059-.176.093-.36.146-.573a8.566,8.566,0,0,0-1.651-.153c.083-.3.159-.569.24-.859Z"
            transform="translate(2856.387 -3422.632)" fill="#285278"/>
      <path id="Path_2244" data-name="Path 2244"
            d="M-3504.6,3507.866a4.954,4.954,0,0,1-.792.018c-.42-.016-.6.082-.732.48-.415,1.258-.825,2.516-1.222,3.779a5.89,5.89,0,0,0-.136.815h-1.272l1.654-5c-.538-.165-1.091.032-1.654-.135a3.894,3.894,0,0,1,.078-.471.471.471,0,0,1,.477-.382c.089,0,.177-.011.265-.011q1.812,0,3.624,0c.085,0,.171.012.25.018C-3503.934,3507.537-3504.09,3507.8-3504.6,3507.866Z"
            transform="translate(3544.025 -3422.025)" fill="#285278"/>
      <path id="Path_2245" data-name="Path 2245"
            d="M-3648.808,3507.49c-.1.3-.2.578-.311.877-.412,0-.793,0-1.174,0-.474.008-.556.066-.7.508q-.6,1.822-1.2,3.648c-.058.181-.09.371-.131.558-.075.348-.119.391-.46.4-.249.007-.5,0-.833,0,.1-.364.182-.678.285-.982.4-1.185.812-2.365,1.212-3.549a3.675,3.675,0,0,0,.093-.472,13.928,13.928,0,0,0-1.7-.127l.321-.864Z"
            transform="translate(3680.452 -3422.528)" fill="#285278"/>
      <path id="Path_2246" data-name="Path 2246" d="M-3374.4,3507.45c-.541,2.026-1.426,3.913-1.832,5.981h-1.257c.65-2.006,1.292-3.982,1.94-5.981Z"
            transform="translate(3420.491 -3422.491)" fill="#285278"/>
      <path id="Path_2247" data-name="Path 2247"
            d="M-2104.787,2694.808a8.837,8.837,0,0,1-1.711-2.334l.566-.41c.318.231.356.588.495.884s.262.592.371.9A2.048,2.048,0,0,1-2104.787,2694.808Z"
            transform="translate(2224.404 -2655.157)" fill="#285278"/>
    </g>
  </g>
</svg>
