<svg xmlns="http://www.w3.org/2000/svg" width="189.798" height="58.633" viewBox="0 0 189.798 58.633">
  <g id="Group_192" data-name="Group 192" transform="translate(0.497)">
    <text id="Colours_for_everyone" data-name="Colours for everyone" transform="translate(47.503 55.633)" fill="#fff" font-size="9" font-family="Poppins-Light, Poppins"
          font-weight="300" letter-spacing="0.02em">
      <tspan x="-47.93" y="0">Colours for everyone</tspan>
    </text>
    <g id="Group_191" data-name="Group 191" transform="translate(0.001 0)">
      <g id="Group_189" data-name="Group 189" transform="translate(0 0)">
        <path id="Path_2137" data-name="Path 2137" d="M1127.276,464.643v20.566H1120V464.643Z" transform="translate(-982.21 -442.869)" fill="#fff"/>
        <path id="Path_2138" data-name="Path 2138"
              d="M1165.355,464.486a10.8,10.8,0,0,1,4.31,3.762,10.076,10.076,0,0,1,0,10.864,10.881,10.881,0,0,1-4.326,3.776,13.856,13.856,0,0,1-11.995,0,11,11,0,0,1-4.342-3.776,9.99,9.99,0,0,1,0-10.864,10.9,10.9,0,0,1,4.342-3.762,14.026,14.026,0,0,1,12.011,0Zm-9.373,5.839a5.319,5.319,0,0,0,0,6.681,4.448,4.448,0,0,0,3.376,1.235,4.4,4.4,0,0,0,3.343-1.235,5.319,5.319,0,0,0,0-6.681,4.406,4.406,0,0,0-3.343-1.235A4.45,4.45,0,0,0,1155.982,470.324Z"
              transform="translate(-1003.269 -441.71)" fill="#fff"/>
        <path id="Path_2139" data-name="Path 2139" d="M1268.727,485.209h-7.275l-7.7-10.341v10.341h-7.276V464.643h7.276l7.7,10.515V464.643h7.275Z"
              transform="translate(-1079.427 -442.869)" fill="#fff"/>
        <path id="Path_2140" data-name="Path 2140" d="M972.779,482.1h-7.734l-1.147,3.108h-7.636l8.488-20.566h8.39l8.455,20.566h-7.669Zm-1.769-4.851-2.1-5.722-2.1,5.722Z"
              transform="translate(-856.351 -442.869)" fill="#fff"/>
        <path id="Path_2141" data-name="Path 2141" d="M1053.371,464.643v5.112H1048.4v15.453h-7.275V469.755h-4.215l-2.082-5.112Z" transform="translate(-916.738 -442.869)"
              fill="#fff"/>
        <path id="Path_2142" data-name="Path 2142"
              d="M899.648,387.978h-7.734l-1.147,3.108h-7.636l8.488-20.566h8.39l8.455,20.566H900.8Zm-1.77-4.851-2.1-5.722L894,382.268l-.315.858Z"
              transform="translate(-800.137 -370.52)" fill="#fff"/>
        <path id="Path_2143" data-name="Path 2143"
              d="M903.384,480.154a10.113,10.113,0,0,1-4.211,3.7,14.233,14.233,0,0,1-6.374,1.351h-9.668V464.643H892.8a14.636,14.636,0,0,1,6.374,1.307,9.9,9.9,0,0,1,4.211,3.631,10.215,10.215,0,0,1,0,10.573Zm-7.341-1.888a4.726,4.726,0,0,0,0-6.8,5.94,5.94,0,0,0-3.9-1.191h-1.737v9.179h1.737A5.937,5.937,0,0,0,896.043,478.266Z"
              transform="translate(-800.137 -442.869)" fill="#fff"/>
        <path id="Path_2144" data-name="Path 2144" d="M834.9,370.52l-8.324,14.321v6.245H819.3v-6.245l-8.324-14.321H819.3l3.206,6.312.5.979.5-.988,3.2-6.3Z"
              transform="translate(-744.672 -370.52)" fill="#fff"/>
        <path id="Path_2145" data-name="Path 2145" d="M795.765,386.207v4.879H781.938V370.52h7.275v15.687Z" transform="translate(-722.354 -370.52)" fill="#fff"/>
        <path id="Path_2146" data-name="Path 2146" d="M804.192,485.209h-7.276l-7.7-10.341v10.341H781.94V464.643h7.276l7.7,10.515V464.643h7.276Z"
              transform="translate(-722.355 -442.869)" fill="#fff"/>
        <path id="Path_2147" data-name="Path 2147" d="M531.648,469.753V472.6h6.091v4.851h-6.091v7.754h-7.276V464.64h16.385v5.112Z" transform="translate(-524.372 -442.867)"
              fill="#fff"/>
        <path id="Path_2148" data-name="Path 2148"
              d="M606.074,464.486a10.807,10.807,0,0,1,4.31,3.762,10.077,10.077,0,0,1,0,10.864,10.882,10.882,0,0,1-4.326,3.776,13.856,13.856,0,0,1-11.995,0,11,11,0,0,1-4.342-3.776,9.991,9.991,0,0,1,0-10.864,10.9,10.9,0,0,1,4.342-3.762,14.026,14.026,0,0,1,12.011,0Zm-9.373,5.839a5.319,5.319,0,0,0,0,6.681,5.187,5.187,0,0,0,6.718,0,5.319,5.319,0,0,0,0-6.681,5.187,5.187,0,0,0-6.718,0Z"
              transform="translate(-573.369 -441.71)" fill="#fff"/>
        <path id="Path_2149" data-name="Path 2149"
              d="M695.356,370.52v11.59a3.358,3.358,0,0,0,.7,2.251,2.836,2.836,0,0,0,2.278.828,3,3,0,0,0,2.327-.828,3.217,3.217,0,0,0,.754-2.251V370.52h7.243v11.59a8.864,8.864,0,0,1-1.376,5.011,8.484,8.484,0,0,1-3.769,3.123,13.2,13.2,0,0,1-5.342,1.046,12.4,12.4,0,0,1-5.227-1.046,8.008,8.008,0,0,1-3.556-3.108,9.36,9.36,0,0,1-1.278-5.025V370.52Z"
              transform="translate(-650.234 -370.52)" fill="#fff"/>
        <path id="Path_2150" data-name="Path 2150"
              d="M695.356,464.643v11.59a3.358,3.358,0,0,0,.7,2.251,2.836,2.836,0,0,0,2.278.828,3,3,0,0,0,2.327-.828,3.216,3.216,0,0,0,.754-2.251v-11.59h7.243v11.59a8.863,8.863,0,0,1-1.376,5.011,8.486,8.486,0,0,1-3.769,3.123,13.2,13.2,0,0,1-5.342,1.046,12.4,12.4,0,0,1-5.227-1.046,8.01,8.01,0,0,1-3.556-3.108,9.361,9.361,0,0,1-1.278-5.025v-11.59Z"
              transform="translate(-650.234 -442.869)" fill="#fff"/>
        <path id="Path_2151" data-name="Path 2151"
              d="M540.889,387.978h-7.734l-1.147,3.108h-7.636l8.488-20.566h8.39l8.455,20.566h-7.669Zm-1.77-4.851-2.1-5.722-1.911,5.214-.186.508h4.2Z"
              transform="translate(-524.372 -370.52)" fill="#fff"/>
        <path id="Path_2152" data-name="Path 2152" d="M623.788,370.52v5.112h-4.976v15.453h-7.275l-.231-15.453h-3.29l-2.082-5.112Z" transform="translate(-587.065 -370.52)"
              fill="#fff"/>
      </g>
    </g>
  </g>
</svg>
