<svg xmlns="http://www.w3.org/2000/svg" width="108.474" height="43.965" viewBox="0 0 108.474 43.965">
  <g id="Group_225" data-name="Group 225" transform="translate(0 0)">
    <path id="Path_2217" data-name="Path 2217" d="M899.648,387.978h-7.734l-1.147,3.108h-7.636l8.488-20.566h8.39l8.455,20.566H900.8Zm-1.77-4.851-2.1-5.722L894,382.268l-.315.858Z" transform="translate(-799.99 -370.52)"/>
    <path id="Path_2218" data-name="Path 2218" d="M834.9,370.52l-8.324,14.321v6.245H819.3v-6.245l-8.324-14.321H819.3l3.206,6.312.5.979.5-.988,3.2-6.3Z" transform="translate(-744.524 -370.52)"/>
    <path id="Path_2219" data-name="Path 2219" d="M795.765,386.207v4.879H781.938V370.52h7.275v15.687Z" transform="translate(-722.206 -370.52)"/>
    <path id="Path_2220" data-name="Path 2220" d="M695.356,370.52v11.59a3.358,3.358,0,0,0,.7,2.251,2.836,2.836,0,0,0,2.278.828,3,3,0,0,0,2.327-.828,3.217,3.217,0,0,0,.754-2.251V370.52h7.243v11.59a8.864,8.864,0,0,1-1.376,5.011,8.484,8.484,0,0,1-3.769,3.123,13.2,13.2,0,0,1-5.342,1.046,12.4,12.4,0,0,1-5.227-1.046,8.008,8.008,0,0,1-3.556-3.108,9.36,9.36,0,0,1-1.278-5.025V370.52Z" transform="translate(-650.086 -370.52)"/>
    <path id="Path_2221" data-name="Path 2221" d="M540.889,387.978h-7.734l-1.147,3.108h-7.636l8.488-20.566h8.39l8.455,20.566h-7.669Zm-1.77-4.851-2.1-5.722-1.911,5.214-.186.508h4.2Z" transform="translate(-524.224 -370.52)"/>
    <path id="Path_2222" data-name="Path 2222" d="M623.788,370.52v5.112h-4.976v15.453h-7.275l-.231-15.453h-3.29l-2.082-5.112Z" transform="translate(-586.917 -370.52)"/>
    <text id="Designs" transform="translate(0 37.965)" fill="#0050d1" font-size="16" font-family="Poppins-Medium, Poppins" font-weight="500"><tspan x="0" y="0">Designs</tspan></text>
  </g>
</svg>
