<svg xmlns="http://www.w3.org/2000/svg" width="108.326" height="42.381" viewBox="0 0 108.326 42.381">
  <g id="Group_225" data-name="Group 225" transform="translate(-0.148 0)">
    <path id="Path_2217" data-name="Path 2217" d="M899.648,387.978h-7.734l-1.147,3.108h-7.636l8.488-20.566h8.39l8.455,20.566H900.8Zm-1.77-4.851-2.1-5.722L894,382.268l-.315.858Z"
          transform="translate(-799.99 -370.52)"/>
    <path id="Path_2218" data-name="Path 2218" d="M834.9,370.52l-8.324,14.321v6.245H819.3v-6.245l-8.324-14.321H819.3l3.206,6.312.5.979.5-.988,3.2-6.3Z"
          transform="translate(-744.524 -370.52)"/>
    <path id="Path_2219" data-name="Path 2219" d="M795.765,386.207v4.879H781.938V370.52h7.275v15.687Z" transform="translate(-722.206 -370.52)"/>
    <path id="Path_2220" data-name="Path 2220"
          d="M695.356,370.52v11.59a3.358,3.358,0,0,0,.7,2.251,2.836,2.836,0,0,0,2.278.828,3,3,0,0,0,2.327-.828,3.217,3.217,0,0,0,.754-2.251V370.52h7.243v11.59a8.864,8.864,0,0,1-1.376,5.011,8.484,8.484,0,0,1-3.769,3.123,13.2,13.2,0,0,1-5.342,1.046,12.4,12.4,0,0,1-5.227-1.046,8.008,8.008,0,0,1-3.556-3.108,9.36,9.36,0,0,1-1.278-5.025V370.52Z"
          transform="translate(-650.086 -370.52)"/>
    <path id="Path_2221" data-name="Path 2221"
          d="M540.889,387.978h-7.734l-1.147,3.108h-7.636l8.488-20.566h8.39l8.455,20.566h-7.669Zm-1.77-4.851-2.1-5.722-1.911,5.214-.186.508h4.2Z"
          transform="translate(-524.224 -370.52)"/>
    <path id="Path_2222" data-name="Path 2222" d="M623.788,370.52v5.112h-4.976v15.453h-7.275l-.231-15.453h-3.29l-2.082-5.112Z" transform="translate(-586.917 -370.52)"/>
    <path id="Path_2251" data-name="Path 2251"
          d="M5.36-11.28H.9V0H5.36c3.6,0,5.888-2.384,5.888-5.648C11.248-8.96,8.96-11.28,5.36-11.28ZM4.032-2.768V-8.56H5.12A2.684,2.684,0,0,1,8.064-5.648,2.668,2.668,0,0,1,5.12-2.768Zm12.656-3.84a1.231,1.231,0,0,1,1.344,1.232H15.264A1.354,1.354,0,0,1,16.688-6.608ZM21.04-3.1H17.7a1.171,1.171,0,0,1-1.12.7c-.7,0-1.264-.416-1.328-1.456h5.936a5.685,5.685,0,0,0,.048-.736,4.249,4.249,0,0,0-4.528-4.5A4.3,4.3,0,0,0,12.144-4.5,4.321,4.321,0,0,0,16.7.112,4.261,4.261,0,0,0,21.04-3.1Zm9.024.464c-.016-3.408-4.8-2.384-4.8-3.664,0-.336.272-.544.784-.544a1.055,1.055,0,0,1,1.168.9h2.832c-.208-1.776-1.488-3.136-3.936-3.136-2.432,0-3.728,1.3-3.728,2.864,0,3.3,4.768,2.224,4.768,3.536,0,.32-.3.576-.832.576a1.108,1.108,0,0,1-1.232-.912h-3.04C22.176-1.232,23.84.112,26.336.112,28.656.112,30.064-1.072,30.064-2.64ZM31.6,0h3.136V-8.976H31.6Zm1.584-9.808a1.658,1.658,0,0,0,1.824-1.6,1.672,1.672,0,0,0-1.824-1.632,1.677,1.677,0,0,0-1.84,1.632A1.663,1.663,0,0,0,33.184-9.808ZM36.016-4.5c0,2.864,1.7,4.608,3.824,4.608a2.912,2.912,0,0,0,2.64-1.36V-.1c0,1.392-.72,1.792-1.6,1.792-.8,0-1.344-.336-1.472-.912H36.32c.224,2.224,1.952,3.632,4.752,3.632A4.169,4.169,0,0,0,45.616-.1v-8.88H42.48v1.248a2.912,2.912,0,0,0-2.64-1.36C37.712-9.088,36.016-7.36,36.016-4.5Zm6.464,0a1.67,1.67,0,0,1-1.632,1.872A1.67,1.67,0,0,1,39.216-4.5a1.648,1.648,0,0,1,1.632-1.856A1.665,1.665,0,0,1,42.48-4.5ZM53.52,0h3.136V-5.232c0-2.352-1.3-3.824-3.376-3.824A3.239,3.239,0,0,0,50.544-7.7v-1.28H47.408V0h3.136V-4.816a1.455,1.455,0,0,1,1.5-1.648A1.448,1.448,0,0,1,53.52-4.816ZM65.936-2.64c-.016-3.408-4.8-2.384-4.8-3.664,0-.336.272-.544.784-.544a1.055,1.055,0,0,1,1.168.9H65.92c-.208-1.776-1.488-3.136-3.936-3.136-2.432,0-3.728,1.3-3.728,2.864,0,3.3,4.768,2.224,4.768,3.536,0,.32-.3.576-.832.576a1.108,1.108,0,0,1-1.232-.912H57.92C58.048-1.232,59.712.112,62.208.112,64.528.112,65.936-1.072,65.936-2.64Z"
          transform="translate(0 37.965)" fill="#0050d1"/>
  </g>
</svg>
