<svg id="Group_229" data-name="Group 229" xmlns="http://www.w3.org/2000/svg" width="108.326" height="39.535" viewBox="0 0 108.326 39.535">
  <path id="Path_2217" data-name="Path 2217" d="M899.648,387.978h-7.734l-1.147,3.108h-7.636l8.488-20.566h8.39l8.455,20.566H900.8Zm-1.77-4.851-2.1-5.722L894,382.268l-.315.858Z"
        transform="translate(-800.138 -370.52)"/>
  <path id="Path_2218" data-name="Path 2218" d="M834.9,370.52l-8.324,14.321v6.245H819.3v-6.245l-8.324-14.321H819.3l3.206,6.312.5.979.5-.988,3.2-6.3Z"
        transform="translate(-744.672 -370.52)"/>
  <path id="Path_2219" data-name="Path 2219" d="M795.765,386.207v4.879H781.938V370.52h7.275v15.687Z" transform="translate(-722.354 -370.52)"/>
  <path id="Path_2220" data-name="Path 2220"
        d="M695.356,370.52v11.59a3.358,3.358,0,0,0,.7,2.251,2.836,2.836,0,0,0,2.278.828,3,3,0,0,0,2.327-.828,3.217,3.217,0,0,0,.754-2.251V370.52h7.243v11.59a8.864,8.864,0,0,1-1.376,5.011,8.484,8.484,0,0,1-3.769,3.123,13.2,13.2,0,0,1-5.342,1.046,12.4,12.4,0,0,1-5.227-1.046,8.008,8.008,0,0,1-3.556-3.108,9.36,9.36,0,0,1-1.278-5.025V370.52Z"
        transform="translate(-650.234 -370.52)"/>
  <path id="Path_2221" data-name="Path 2221" d="M540.889,387.978h-7.734l-1.147,3.108h-7.636l8.488-20.566h8.39l8.455,20.566h-7.669Zm-1.77-4.851-2.1-5.722-1.911,5.214-.186.508h4.2Z"
        transform="translate(-524.372 -370.52)"/>
  <path id="Path_2222" data-name="Path 2222" d="M623.788,370.52v5.112h-4.976v15.453h-7.275l-.231-15.453h-3.29l-2.082-5.112Z" transform="translate(-587.065 -370.52)"/>
  <path id="Path_2250" data-name="Path 2250"
        d="M.528-5.632A5.444,5.444,0,0,0,6.176.08,5.2,5.2,0,0,0,11.5-3.84H8.5A2.474,2.474,0,0,1,6.144-2.4c-1.68,0-2.832-1.248-2.832-3.232S4.464-8.864,6.144-8.864A2.474,2.474,0,0,1,8.5-7.424H11.5A5.215,5.215,0,0,0,6.176-11.36,5.457,5.457,0,0,0,.528-5.632ZM15.92-4.144c0-1.536.752-1.984,2.048-1.984h.752v-2.9a3.328,3.328,0,0,0-2.8,1.584V-8.928H13.184V0H15.92Zm3.568-.336c0,2.816,1.744,4.608,3.92,4.608a3.157,3.157,0,0,0,2.768-1.392V0h2.736V-8.928H26.176v1.264a3.108,3.108,0,0,0-2.752-1.392C21.232-9.056,19.488-7.3,19.488-4.48Zm6.688.016a1.993,1.993,0,0,1-1.952,2.208A2.017,2.017,0,0,1,22.272-4.48a1.988,1.988,0,0,1,1.952-2.192A1.993,1.993,0,0,1,26.176-4.464ZM31.168,0H33.9V-6.656h1.472V-8.928H33.9v-.08c0-.944.368-1.264,1.424-1.2v-2.32c-2.72-.144-4.16,1.008-4.16,3.344v.256h-.992v2.272h.992Zm5.92-3.1c0,2.32,1.3,3.1,3.152,3.1h1.392V-2.32h-.976c-.608,0-.832-.224-.832-.752V-6.656h1.792V-8.928H39.824V-11.1H37.088v2.176H36v2.272h1.088ZM50.4-2.592c-.048-3.328-4.88-2.32-4.88-3.744,0-.432.352-.688.992-.688a1.177,1.177,0,0,1,1.312,1.008h2.528c-.176-1.76-1.456-3.04-3.76-3.04-2.336,0-3.632,1.248-3.632,2.768,0,3.28,4.864,2.24,4.864,3.68,0,.4-.368.72-1.072.72a1.253,1.253,0,0,1-1.376-1.04h-2.7C42.8-1.2,44.4.128,46.784.128,49.024.128,50.4-1.04,50.4-2.592Z"
        transform="translate(-0.029 39.407)" fill="#f09000"/>
</svg>
