<svg xmlns="http://www.w3.org/2000/svg" width="108.326" height="39.535" viewBox="0 0 108.326 39.535">
  <g id="Group_247" data-name="Group 247" transform="translate(-439.681 -30.593)">
    <path id="Path_2217" data-name="Path 2217" d="M899.648,387.978h-7.734l-1.147,3.108h-7.636l8.488-20.566h8.39l8.455,20.566H900.8Zm-1.77-4.851-2.1-5.722L894,382.268l-.315.858Z" transform="translate(-360.457 -339.927)"/>
    <path id="Path_2218" data-name="Path 2218" d="M834.9,370.52l-8.324,14.321v6.245H819.3v-6.245l-8.324-14.321H819.3l3.206,6.312.5.979.5-.988,3.2-6.3Z" transform="translate(-304.991 -339.927)"/>
    <path id="Path_2219" data-name="Path 2219" d="M795.765,386.207v4.879H781.938V370.52h7.275v15.687Z" transform="translate(-282.672 -339.927)"/>
    <path id="Path_2220" data-name="Path 2220" d="M695.356,370.52v11.59a3.358,3.358,0,0,0,.7,2.251,2.836,2.836,0,0,0,2.278.828,3,3,0,0,0,2.327-.828,3.217,3.217,0,0,0,.754-2.251V370.52h7.243v11.59a8.864,8.864,0,0,1-1.376,5.011,8.484,8.484,0,0,1-3.769,3.123,13.2,13.2,0,0,1-5.342,1.046,12.4,12.4,0,0,1-5.227-1.046,8.008,8.008,0,0,1-3.556-3.108,9.36,9.36,0,0,1-1.278-5.025V370.52Z" transform="translate(-210.552 -339.927)"/>
    <path id="Path_2221" data-name="Path 2221" d="M540.889,387.978h-7.734l-1.147,3.108h-7.636l8.488-20.566h8.39l8.455,20.566h-7.669Zm-1.77-4.851-2.1-5.722-1.911,5.214-.186.508h4.2Z" transform="translate(-84.691 -339.927)"/>
    <path id="Path_2222" data-name="Path 2222" d="M623.788,370.52v5.112h-4.976v15.453h-7.275l-.231-15.453h-3.29l-2.082-5.112Z" transform="translate(-147.384 -339.927)"/>
    <path id="Path_2249" data-name="Path 2249" d="M8.656,0h2.9L7.488-11.232H4.32L.256,0H3.12l.672-1.984H7.984ZM7.28-4.1H4.512L5.888-8.208Zm8.24-.048c0-1.536.752-1.984,2.048-1.984h.752v-2.9a3.328,3.328,0,0,0-2.8,1.584V-8.928H12.784V0H15.52ZM20.064-3.1c0,2.32,1.3,3.1,3.152,3.1h1.392V-2.32h-.976c-.608,0-.832-.224-.832-.752V-6.656h1.792V-8.928H22.8V-11.1H20.064v2.176H18.976v2.272h1.088Zm13.312.512c-.048-3.328-4.88-2.32-4.88-3.744,0-.432.352-.688.992-.688A1.177,1.177,0,0,1,30.8-6.016h2.528c-.176-1.76-1.456-3.04-3.76-3.04-2.336,0-3.632,1.248-3.632,2.768,0,3.28,4.864,2.24,4.864,3.68,0,.4-.368.72-1.072.72a1.253,1.253,0,0,1-1.376-1.04h-2.7C25.776-1.2,27.376.128,29.76.128,32,.128,33.376-1.04,33.376-2.592Z" transform="translate(440 70)" fill="#cb0303"/>
  </g>
</svg>
