<svg xmlns="http://www.w3.org/2000/svg" width="162.828" height="36.594" viewBox="0 0 162.828 36.594">
  <g id="Component_2" data-name="Component 2" transform="translate(0 0)">
    <g id="Group_189" data-name="Group 189">
      <path id="Path_2137" data-name="Path 2137" d="M1126.258,464.643v17.69H1120v-17.69Z" transform="translate(-1001.479 -445.914)" fill="#fff"/>
      <path id="Path_2138" data-name="Path 2138"
            d="M1162.844,464.3a9.293,9.293,0,0,1,3.707,3.236,8.667,8.667,0,0,1,0,9.345,9.361,9.361,0,0,1-3.721,3.248,11.919,11.919,0,0,1-10.317,0,9.461,9.461,0,0,1-3.735-3.248,8.593,8.593,0,0,1,0-9.345,9.371,9.371,0,0,1,3.735-3.236,12.064,12.064,0,0,1,10.331,0Zm-8.062,5.022a4.576,4.576,0,0,0,0,5.747,3.827,3.827,0,0,0,2.9,1.062,3.788,3.788,0,0,0,2.875-1.062,4.575,4.575,0,0,0,0-5.747,3.79,3.79,0,0,0-2.875-1.062A3.828,3.828,0,0,0,1154.781,469.319Z"
            transform="translate(-1023.424 -444.706)" fill="#fff"/>
      <path id="Path_2139" data-name="Path 2139" d="M1265.615,482.333h-6.258l-6.624-8.9v8.9h-6.258v-17.69h6.258l6.624,9.045v-9.045h6.258Z" transform="translate(-1102.788 -445.914)"
            fill="#fff"/>
      <path id="Path_2140" data-name="Path 2140" d="M970.469,479.659h-6.653l-.987,2.673h-6.568l7.3-17.69h7.216l7.273,17.69h-6.6Zm-1.522-4.173-1.8-4.922-1.8,4.922Z"
            transform="translate(-870.323 -445.914)" fill="#fff"/>
      <path id="Path_2141" data-name="Path 2141" d="M1050.778,464.643v4.4H1046.5v13.292h-6.258V469.04h-3.626l-1.791-4.4Z" transform="translate(-933.252 -445.914)" fill="#fff"/>
      <path id="Path_2142" data-name="Path 2142" d="M897.338,385.536h-6.653l-.987,2.674h-6.568l7.3-17.69h7.216l7.273,17.69h-6.6Zm-1.522-4.173-1.8-4.922-1.534,4.184-.271.738Z"
            transform="translate(-811.744 -370.52)" fill="#fff"/>
      <path id="Path_2143" data-name="Path 2143"
            d="M900.552,477.985a8.7,8.7,0,0,1-3.623,3.186,12.243,12.243,0,0,1-5.483,1.162h-8.316v-17.69h8.316a12.589,12.589,0,0,1,5.483,1.124,8.512,8.512,0,0,1,3.623,3.123,8.786,8.786,0,0,1,0,9.095Zm-6.315-1.624a4.065,4.065,0,0,0,0-5.847,5.109,5.109,0,0,0-3.354-1.024h-1.494v7.9h1.494A5.107,5.107,0,0,0,894.237,476.361Z"
            transform="translate(-811.744 -445.914)" fill="#fff"/>
      <path id="Path_2144" data-name="Path 2144" d="M831.551,370.52l-7.16,12.318v5.372h-6.258v-5.372l-7.16-12.318h7.16l2.758,5.429.428.842.432-.85,2.754-5.421Z"
            transform="translate(-753.944 -370.52)" fill="#fff"/>
      <path id="Path_2145" data-name="Path 2145" d="M793.831,384.013v4.2H781.938V370.52H788.2v13.493Z" transform="translate(-730.686 -370.52)" fill="#fff"/>
      <path id="Path_2146" data-name="Path 2146" d="M801.081,482.333h-6.258l-6.624-8.9v8.9H781.94v-17.69H788.2l6.624,9.045v-9.045h6.258Z" transform="translate(-730.688 -445.914)"
            fill="#fff"/>
      <path id="Path_2147" data-name="Path 2147" d="M530.63,469.038v2.45h5.239v4.173H530.63v6.67h-6.258V464.64h14.094v4.4Z" transform="translate(-524.372 -445.912)" fill="#fff"/>
      <path id="Path_2148" data-name="Path 2148"
            d="M603.563,464.3a9.3,9.3,0,0,1,3.707,3.236,8.667,8.667,0,0,1,0,9.345,9.361,9.361,0,0,1-3.721,3.248,11.919,11.919,0,0,1-10.317,0,9.461,9.461,0,0,1-3.735-3.248,8.593,8.593,0,0,1,0-9.345,9.371,9.371,0,0,1,3.735-3.236,12.064,12.064,0,0,1,10.331,0Zm-8.062,5.022a4.575,4.575,0,0,0,0,5.747,4.462,4.462,0,0,0,5.779,0,4.575,4.575,0,0,0,0-5.747,4.462,4.462,0,0,0-5.779,0Z"
            transform="translate(-575.431 -444.706)" fill="#fff"/>
      <path id="Path_2149" data-name="Path 2149"
            d="M694.343,370.52v9.969a2.888,2.888,0,0,0,.606,1.936,2.44,2.44,0,0,0,1.959.712,2.578,2.578,0,0,0,2-.712,2.767,2.767,0,0,0,.648-1.936V370.52h6.23v9.969a7.625,7.625,0,0,1-1.184,4.31,7.3,7.3,0,0,1-3.242,2.686,11.353,11.353,0,0,1-4.595.9,10.665,10.665,0,0,1-4.5-.9,6.887,6.887,0,0,1-3.059-2.674,8.051,8.051,0,0,1-1.1-4.322V370.52Z"
            transform="translate(-655.531 -370.52)" fill="#fff"/>
      <path id="Path_2150" data-name="Path 2150"
            d="M694.343,464.643v9.969a2.888,2.888,0,0,0,.606,1.936,2.44,2.44,0,0,0,1.959.712,2.578,2.578,0,0,0,2-.712,2.766,2.766,0,0,0,.648-1.936v-9.969h6.23v9.969a7.624,7.624,0,0,1-1.184,4.31,7.3,7.3,0,0,1-3.242,2.686,11.356,11.356,0,0,1-4.595.9,10.668,10.668,0,0,1-4.5-.9,6.889,6.889,0,0,1-3.059-2.674,8.051,8.051,0,0,1-1.1-4.323v-9.969Z"
            transform="translate(-655.531 -445.914)" fill="#fff"/>
      <path id="Path_2151" data-name="Path 2151" d="M538.579,385.536h-6.653l-.987,2.674h-6.568l7.3-17.69h7.217l7.273,17.69h-6.6Zm-1.522-4.173-1.8-4.922-1.644,4.485-.16.437h3.608Z"
            transform="translate(-524.372 -370.52)" fill="#fff"/>
      <path id="Path_2152" data-name="Path 2152" d="M621.291,370.52v4.4h-4.28V388.21h-6.258l-.2-13.292h-2.83l-1.791-4.4Z" transform="translate(-589.704 -370.52)" fill="#fff"/>
    </g>
  </g>
</svg>
