<svg id="Component_1" data-name="Component 1" xmlns="http://www.w3.org/2000/svg" width="266.073" height="59.797" viewBox="0 0 266.073 59.797">
  <g id="Group_188" data-name="Group 188" transform="translate(153.842)">
    <path id="Path_2135" data-name="Path 2135" d="M1003.761,371.374a5.4,5.4,0,1,1-5.4,5.4,5.409,5.409,0,0,1,5.4-5.4m0-.854a6.256,6.256,0,1,0,6.256,6.256,6.256,6.256,0,0,0-6.256-6.256Z" transform="translate(-997.505 -370.52)"/>
    <g id="Group_187" data-name="Group 187" transform="translate(4.001 3.237)">
      <path id="Path_2136" data-name="Path 2136" d="M1013.341,386.431l-1.675-2.379h-.771v2.379h-1.085v-5.955h2.37a2.662,2.662,0,0,1,1.746.5,1.632,1.632,0,0,1,.594,1.316,1.56,1.56,0,0,1-.442,1.147,2.212,2.212,0,0,1-1.28.574l1.761,2.42Zm-2.446-3.062h1.2q1.313,0,1.313-1.029a.954.954,0,0,0-.319-.763,1.5,1.5,0,0,0-.994-.274h-1.2Z" transform="translate(-1009.81 -380.476)"/>
    </g>
  </g>
  <g id="Group_189" data-name="Group 189">
    <path id="Path_2137" data-name="Path 2137" d="M1130.226,464.643v28.906H1120V464.643Z" transform="translate(-926.328 -434.038)"/>
    <path id="Path_2138" data-name="Path 2138" d="M1172.639,465.034a15.185,15.185,0,0,1,6.057,5.287,14.163,14.163,0,0,1,0,15.27,15.3,15.3,0,0,1-6.08,5.308,19.476,19.476,0,0,1-16.859,0,15.459,15.459,0,0,1-6.1-5.308,14.041,14.041,0,0,1,0-15.27,15.313,15.313,0,0,1,6.1-5.287,19.714,19.714,0,0,1,16.882,0Zm-13.174,8.207a7.477,7.477,0,0,0,0,9.391,6.253,6.253,0,0,0,4.745,1.735,6.19,6.19,0,0,0,4.7-1.735,7.476,7.476,0,0,0,0-9.391,6.193,6.193,0,0,0-4.7-1.735A6.255,6.255,0,0,0,1159.465,473.24Z" transform="translate(-944.816 -433.021)"/>
    <path id="Path_2139" data-name="Path 2139" d="M1277.752,493.549h-10.226L1256.7,479.014v14.535h-10.227V464.643H1256.7l10.825,14.78v-14.78h10.226Z" transform="translate(-1011.679 -434.038)"/>
    <path id="Path_2140" data-name="Path 2140" d="M979.478,489.181H968.607l-1.612,4.368H956.262l11.931-28.906h11.792l11.884,28.906H981.09Zm-2.487-6.819-2.948-8.043-2.948,8.043Z" transform="translate(-815.83 -434.038)"/>
    <path id="Path_2141" data-name="Path 2141" d="M1060.894,464.643v7.186H1053.9v21.721h-10.226V471.829h-5.925l-2.926-7.186Z" transform="translate(-868.847 -434.038)"/>
    <path id="Path_2142" data-name="Path 2142" d="M906.347,395.058H895.476l-1.612,4.369H883.131l11.93-28.907h11.792l11.884,28.907H907.959Zm-2.487-6.819-2.948-8.043-2.506,6.837-.442,1.206Z" transform="translate(-766.478 -370.52)"/>
    <path id="Path_2143" data-name="Path 2143" d="M911.6,486.445a14.213,14.213,0,0,1-5.919,5.205,20.006,20.006,0,0,1-8.959,1.9H883.131V464.643H896.72a20.571,20.571,0,0,1,8.959,1.837,13.909,13.909,0,0,1,5.919,5.1,14.357,14.357,0,0,1,0,14.862Zm-10.319-2.654a6.643,6.643,0,0,0,0-9.554,8.349,8.349,0,0,0-5.481-1.674h-2.441v12.9H895.8A8.346,8.346,0,0,0,901.28,483.791Z" transform="translate(-766.478 -434.038)"/>
    <path id="Path_2144" data-name="Path 2144" d="M844.6,370.52l-11.7,20.129v8.778H822.673v-8.778l-11.7-20.129h11.7l4.506,8.872.7,1.376.706-1.389,4.5-8.859Z" transform="translate(-717.783 -370.52)"/>
    <path id="Path_2145" data-name="Path 2145" d="M801.372,392.569v6.858H781.938V370.52h10.226v22.049Z" transform="translate(-698.189 -370.52)"/>
    <path id="Path_2146" data-name="Path 2146" d="M813.217,493.549H802.991l-10.825-14.535v14.535H781.94V464.643h10.226l10.825,14.78v-14.78h10.226Z" transform="translate(-698.19 -434.038)"/>
    <path id="Path_2147" data-name="Path 2147" d="M534.6,471.826v4h8.561v6.819H534.6v10.9H524.372V464.64H547.4v7.186Z" transform="translate(-524.372 -434.036)"/>
    <path id="Path_2148" data-name="Path 2148" d="M613.358,465.034a15.19,15.19,0,0,1,6.057,5.287,14.163,14.163,0,0,1,0,15.27,15.3,15.3,0,0,1-6.08,5.308,19.476,19.476,0,0,1-16.859,0,15.46,15.46,0,0,1-6.1-5.308,14.043,14.043,0,0,1,0-15.27,15.314,15.314,0,0,1,6.1-5.287,19.714,19.714,0,0,1,16.882,0Zm-13.174,8.207a7.476,7.476,0,0,0,0,9.391,7.291,7.291,0,0,0,9.443,0,7.476,7.476,0,0,0,0-9.391,7.291,7.291,0,0,0-9.443,0Z" transform="translate(-567.389 -433.021)"/>
    <path id="Path_2149" data-name="Path 2149" d="M698.293,370.52v16.291a4.72,4.72,0,0,0,.99,3.164,3.986,3.986,0,0,0,3.2,1.164,4.213,4.213,0,0,0,3.27-1.164,4.521,4.521,0,0,0,1.059-3.164V370.52h10.18v16.291a12.459,12.459,0,0,1-1.935,7.043,11.925,11.925,0,0,1-5.3,4.389,18.552,18.552,0,0,1-7.508,1.47,17.428,17.428,0,0,1-7.347-1.47,11.254,11.254,0,0,1-5-4.369,13.156,13.156,0,0,1-1.8-7.063V370.52Z" transform="translate(-634.872 -370.52)"/>
    <path id="Path_2150" data-name="Path 2150" d="M698.293,464.643v16.29a4.719,4.719,0,0,0,.99,3.164,3.987,3.987,0,0,0,3.2,1.164,4.213,4.213,0,0,0,3.27-1.164,4.521,4.521,0,0,0,1.059-3.164v-16.29h10.18v16.29a12.458,12.458,0,0,1-1.935,7.043,11.927,11.927,0,0,1-5.3,4.389,18.557,18.557,0,0,1-7.508,1.47,17.433,17.433,0,0,1-7.347-1.47,11.258,11.258,0,0,1-5-4.369,13.157,13.157,0,0,1-1.8-7.063v-16.29Z" transform="translate(-634.872 -434.038)"/>
    <path id="Path_2151" data-name="Path 2151" d="M547.588,395.058H536.717l-1.612,4.369H524.372L536.3,370.52h11.792l11.885,28.907H549.2Zm-2.487-6.819-2.948-8.043-2.686,7.329-.262.714h5.9Z" transform="translate(-524.372 -370.52)"/>
    <path id="Path_2152" data-name="Path 2152" d="M631.029,370.52v7.186h-6.994v21.72H613.809l-.325-21.72H608.86l-2.926-7.186Z" transform="translate(-579.413 -370.52)"/>
  </g>
</svg>
