<?xml version="1.0" encoding="utf-8"?>
<!-- Generator: Adobe Illustrator 19.0.0, SVG Export Plug-In . SVG Version: 6.00 Build 0)  -->
<svg version="1.1" id="Layer_1" xmlns="http://www.w3.org/2000/svg" x="0px" y="0px"
     viewBox="-345 378.6 108.3 45.4" style="enable-background:new -345 378.6 108.3 45.4;" xml:space="preserve">
<style type="text/css">
	.st0{enable-background:new    ;}
	.st1{fill:#CB0303;}
</style>
  <g id="Group_247" transform="translate(-439.681 -30.593)">
	<path id="Path_2217" d="M194.2,426.6h-7.7l-1.1,3.1h-7.6l8.5-20.6h8.4l8.5,20.6h-7.7L194.2,426.6z M192.4,421.8l-2.1-5.7l-1.8,4.9
		l-0.3,0.9L192.4,421.8z"/>
    <path id="Path_2218" d="M184.9,409.2l-8.3,14.3v6.2h-7.3v-6.2l-8.3-14.3h8.3l3.2,6.3l0.5,1l0.5-1l3.2-6.3L184.9,409.2z"/>
    <path id="Path_2219" d="M168.1,424.9v4.9h-13.8v-20.6h7.3v15.7H168.1z"/>
    <path id="Path_2220" d="M139.8,409.2v11.6c0,0.8,0.2,1.6,0.7,2.3c0.6,0.6,1.4,0.9,2.3,0.8c0.9,0.1,1.7-0.2,2.3-0.8
		c0.5-0.6,0.8-1.4,0.8-2.3v-11.6h7.2v11.6c0.1,1.8-0.4,3.5-1.4,5c-0.9,1.4-2.2,2.5-3.8,3.1c-1.7,0.7-3.5,1.1-5.3,1
		c-1.8,0-3.6-0.3-5.2-1c-1.5-0.7-2.7-1.7-3.6-3.1c-0.9-1.5-1.3-3.3-1.3-5v-11.6H139.8z"/>
    <path id="Path_2221" d="M111.2,426.6h-7.7l-1.1,3.1h-7.6l8.5-20.6h8.4l8.5,20.6h-7.7L111.2,426.6z M109.4,421.8l-2.1-5.7l-1.9,5.2
		l-0.2,0.5L109.4,421.8L109.4,421.8z"/>
    <path id="Path_2222" d="M131.4,409.2v5.1h-5v15.5h-7.3l-0.2-15.5h-3.3l-2.1-5.1H131.4z"/>
    <g class="st0">
		<path class="st1" d="M103,446.6h-4.2l-0.7,2h-2.9l4.1-11.2h3.2l4.1,11.2h-2.9L103,446.6z M100.9,440.4l-1.4,4.1h2.8L100.9,440.4z"
    />
      <path class="st1" d="M110.5,448.6h-2.7v-8.9h2.7v1.5c0.6-0.9,1.6-1.6,2.8-1.6v2.9h-0.8c-1.3,0-2,0.4-2,2V448.6z"/>
      <path class="st1" d="M115.1,441.9H114v-2.3h1.1v-2.2h2.7v2.2h1.8v2.3h-1.8v3.6c0,0.5,0.2,0.8,0.8,0.8h1v2.3h-1.4
			c-1.9,0-3.2-0.8-3.2-3.1V441.9z"/>
      <path class="st1" d="M124.8,448.7c-2.4,0-4-1.3-4.1-3.1h2.7c0.1,0.6,0.6,1,1.4,1c0.7,0,1.1-0.3,1.1-0.7c0-1.4-4.9-0.4-4.9-3.7
			c0-1.5,1.3-2.8,3.6-2.8c2.3,0,3.6,1.3,3.8,3h-2.5c-0.1-0.6-0.5-1-1.3-1c-0.6,0-1,0.3-1,0.7c0,1.4,4.8,0.4,4.9,3.7
			C128.4,447.6,127,448.7,124.8,448.7z"/>
	</g>
</g>
</svg>
