<?xml version="1.0" encoding="utf-8"?>
<!-- Generator: Adobe Illustrator 19.0.0, SVG Export Plug-In . SVG Version: 6.00 Build 0)  -->
<svg version="1.1" id="Layer_1" xmlns="http://www.w3.org/2000/svg" xmlns:xlink="http://www.w3.org/1999/xlink" x="0px" y="0px"
	 viewBox="-345 378.6 108.4 45.4" style="enable-background:new -345 378.6 108.4 45.4;" xml:space="preserve">
<style type="text/css">
	.st0{enable-background:new    ;}
	.st1{fill:#F09000;}
</style>
<g id="Group_229" transform="translate(0.029)">
	<path id="Path_2217" d="M-245.5,396.1h-7.7l-1.1,3.1h-7.6l8.5-20.6h8.4l8.5,20.6h-7.7L-245.5,396.1z M-247.3,391.2l-2.1-5.7
		l-1.8,4.9l-0.3,0.9L-247.3,391.2z"/>
	<path id="Path_2218" d="M-254.8,378.6l-8.3,14.3v6.2h-7.3v-6.2l-8.3-14.3h8.3l3.2,6.3l0.5,1l0.5-1l3.2-6.3L-254.8,378.6z"/>
	<path id="Path_2219" d="M-271.6,394.3v4.9h-13.8v-20.6h7.3v15.7H-271.6z"/>
	<path id="Path_2220" d="M-299.9,378.6v11.6c0,0.8,0.2,1.6,0.7,2.3c0.6,0.6,1.4,0.9,2.3,0.8c0.9,0.1,1.7-0.2,2.3-0.8
		c0.5-0.6,0.8-1.4,0.8-2.3v-11.6h7.2v11.6c0.1,1.8-0.4,3.5-1.4,5c-0.9,1.4-2.2,2.5-3.8,3.1c-1.7,0.7-3.5,1.1-5.3,1
		c-1.8,0-3.6-0.3-5.2-1c-1.5-0.7-2.7-1.7-3.6-3.1c-0.9-1.5-1.3-3.3-1.3-5v-11.6H-299.9z"/>
	<path id="Path_2221" d="M-328.5,396.1h-7.7l-1.1,3.1h-7.6l8.5-20.6h8.4l8.5,20.6h-7.7L-328.5,396.1z M-330.3,391.2l-2.1-5.7
		l-1.9,5.2l-0.2,0.5L-330.3,391.2L-330.3,391.2z"/>
	<path id="Path_2222" d="M-308.3,378.6v5.1h-5v15.5h-7.3l-0.2-15.5h-3.3l-2.1-5.1H-308.3z"/>
	<g class="st0">
		<path class="st1" d="M-338.9,406.6c2.7,0,4.7,1.5,5.3,3.9h-3c-0.5-1-1.3-1.4-2.4-1.4c-1.7,0-2.8,1.2-2.8,3.2c0,2,1.2,3.2,2.8,3.2
			c1,0,1.9-0.5,2.4-1.4h3c-0.6,2.4-2.7,3.9-5.3,3.9c-3.3,0-5.7-2.4-5.7-5.7C-344.5,409-342.2,406.6-338.9,406.6z"/>
		<path class="st1" d="M-329.1,418h-2.7v-8.9h2.7v1.5c0.6-0.9,1.6-1.6,2.8-1.6v2.9h-0.8c-1.3,0-2,0.4-2,2V418z"/>
		<path class="st1" d="M-321.6,408.9c1.3,0,2.3,0.6,2.8,1.4v-1.3h2.7v8.9h-2.7v-1.3c-0.5,0.8-1.4,1.4-2.8,1.4
			c-2.2,0-3.9-1.8-3.9-4.6C-325.5,410.7-323.8,408.9-321.6,408.9z M-320.8,411.3c-1,0-2,0.8-2,2.2c0,1.4,0.9,2.2,2,2.2
			c1,0,2-0.8,2-2.2S-319.8,411.3-320.8,411.3z"/>
		<path class="st1" d="M-313.9,411.3h-1v-2.3h1v-0.3c0-2.3,1.4-3.5,4.2-3.3v2.3c-1.1-0.1-1.4,0.3-1.4,1.2v0.1h1.5v2.3h-1.5v6.7h-2.7
			V411.3z"/>
		<path class="st1" d="M-307.9,411.3h-1.1v-2.3h1.1v-2.2h2.7v2.2h1.8v2.3h-1.8v3.6c0,0.5,0.2,0.8,0.8,0.8h1v2.3h-1.4
			c-1.9,0-3.2-0.8-3.2-3.1V411.3z"/>
		<path class="st1" d="M-298.2,418.1c-2.4,0-4-1.3-4.1-3.1h2.7c0.1,0.6,0.6,1,1.4,1c0.7,0,1.1-0.3,1.1-0.7c0-1.4-4.9-0.4-4.9-3.7
			c0-1.5,1.3-2.8,3.6-2.8c2.3,0,3.6,1.3,3.8,3h-2.5c-0.1-0.6-0.5-1-1.3-1c-0.6,0-1,0.3-1,0.7c0,1.4,4.8,0.4,4.9,3.7
			C-294.6,417-296,418.1-298.2,418.1z"/>
	</g>
</g>
</svg>
