<?xml version="1.0" encoding="utf-8"?>
<!-- Generator: Adobe Illustrator 19.0.0, SVG Export Plug-In . SVG Version: 6.00 Build 0)  -->
<svg version="1.1" id="Layer_1" xmlns="http://www.w3.org/2000/svg" x="0px" y="0px"
     viewBox="-345 379 108.5 44" style="enable-background:new -345 379 108.5 44;" xml:space="preserve">
<style type="text/css">
	.st0{enable-background:new    ;}
	.st1{fill:#0050D1;}
</style>
  <g id="Group_225" transform="translate(0 0)">
	<path id="Path_2217" d="M-245.3,396.5h-7.7l-1.1,3.1h-7.6l8.5-20.6h8.4l8.5,20.6h-7.7L-245.3,396.5z M-247.1,391.6l-2.1-5.7
		l-1.8,4.9l-0.3,0.9L-247.1,391.6z"/>
    <path id="Path_2218" d="M-254.6,379l-8.3,14.3v6.2h-7.3v-6.2l-8.3-14.3h8.3l3.2,6.3l0.5,1l0.5-1l3.2-6.3L-254.6,379z"/>
    <path id="Path_2219" d="M-271.4,394.7v4.9h-13.8V379h7.3v15.7H-271.4z"/>
    <path id="Path_2220" d="M-299.7,379v11.6c0,0.8,0.2,1.6,0.7,2.3c0.6,0.6,1.4,0.9,2.3,0.8c0.9,0.1,1.7-0.2,2.3-0.8
		c0.5-0.6,0.8-1.4,0.8-2.3V379h7.2v11.6c0.1,1.8-0.4,3.5-1.4,5c-0.9,1.4-2.2,2.5-3.8,3.1c-1.7,0.7-3.5,1.1-5.3,1
		c-1.8,0-3.6-0.3-5.2-1c-1.5-0.7-2.7-1.7-3.6-3.1c-0.9-1.5-1.3-3.3-1.3-5V379H-299.7z"/>
    <path id="Path_2221" d="M-328.3,396.5h-7.7l-1.1,3.1h-7.6l8.5-20.6h8.4l8.5,20.6h-7.7L-328.3,396.5z M-330.1,391.6l-2.1-5.7
		l-1.9,5.2l-0.2,0.5L-330.1,391.6L-330.1,391.6z"/>
    <path id="Path_2222" d="M-308.1,379v5.1h-5v15.5h-7.3l-0.2-15.5h-3.3l-2.1-5.1H-308.1z"/>
    <g class="st0">
		<path class="st1" d="M-333.7,411.3c0,3.3-2.3,5.7-5.9,5.7h-4.5v-11.3h4.5C-336,405.7-333.7,408-333.7,411.3z M-339.9,414.2
			c1.8,0,2.9-1,2.9-2.9c0-1.9-1.1-2.9-2.9-2.9h-1.1v5.8H-339.9z"/>
      <path class="st1" d="M-328.3,417.1c-2.7,0-4.6-1.7-4.6-4.6c0-2.8,1.9-4.6,4.6-4.6c2.7,0,4.5,1.7,4.5,4.5c0,0.2,0,0.5,0,0.7h-5.9
			c0.1,1,0.6,1.5,1.3,1.5c0.6,0,0.9-0.3,1.1-0.7h3.3C-324.4,415.7-326.1,417.1-328.3,417.1z M-329.7,411.6h2.8
			c0-0.8-0.6-1.2-1.3-1.2C-329.1,410.4-329.6,410.8-329.7,411.6z"/>
      <path class="st1" d="M-318.7,417.1c-2.5,0-4.2-1.3-4.3-3.1h3c0.1,0.6,0.6,0.9,1.2,0.9c0.5,0,0.8-0.3,0.8-0.6
			c0-1.3-4.8-0.2-4.8-3.5c0-1.6,1.3-2.9,3.7-2.9c2.4,0,3.7,1.4,3.9,3.1h-2.8c-0.1-0.6-0.5-0.9-1.2-0.9c-0.5,0-0.8,0.2-0.8,0.5
			c0,1.3,4.8,0.3,4.8,3.7C-314.9,415.9-316.3,417.1-318.7,417.1z"/>
      <path class="st1" d="M-313.7,405.6c0-0.9,0.7-1.6,1.8-1.6c1.1,0,1.8,0.7,1.8,1.6c0,0.9-0.7,1.6-1.8,1.6
			C-312.9,407.2-313.7,406.5-313.7,405.6z M-313.4,408h3.1v9h-3.1V408z"/>
      <path class="st1" d="M-305.2,407.9c1.3,0,2.2,0.6,2.6,1.4V408h3.1v8.9c0,2.4-1.3,4.5-4.5,4.5c-2.8,0-4.5-1.4-4.8-3.6h3.1
			c0.1,0.6,0.7,0.9,1.5,0.9c0.9,0,1.6-0.4,1.6-1.8v-1.2c-0.5,0.8-1.4,1.4-2.6,1.4c-2.1,0-3.8-1.7-3.8-4.6S-307.3,407.9-305.2,407.9z
			 M-304.1,410.6c-0.9,0-1.6,0.6-1.6,1.9c0,1.2,0.7,1.9,1.6,1.9c0.9,0,1.6-0.7,1.6-1.9C-302.5,411.3-303.3,410.6-304.1,410.6z"/>
      <path class="st1" d="M-291.5,412.2c0-1-0.6-1.6-1.5-1.6c-0.9,0-1.5,0.6-1.5,1.6v4.8h-3.1v-9h3.1v1.3c0.5-0.8,1.5-1.4,2.7-1.4
			c2.1,0,3.4,1.5,3.4,3.8v5.2h-3.1V412.2z"/>
      <path class="st1" d="M-282.8,417.1c-2.5,0-4.2-1.3-4.3-3.1h3c0.1,0.6,0.6,0.9,1.2,0.9c0.5,0,0.8-0.3,0.8-0.6
			c0-1.3-4.8-0.2-4.8-3.5c0-1.6,1.3-2.9,3.7-2.9c2.4,0,3.7,1.4,3.9,3.1h-2.8c-0.1-0.6-0.5-0.9-1.2-0.9c-0.5,0-0.8,0.2-0.8,0.5
			c0,1.3,4.8,0.3,4.8,3.7C-279.1,415.9-280.5,417.1-282.8,417.1z"/>
	</g>
</g>
</svg>
