<?xml version="1.0" encoding="utf-8"?>
<!-- Generator: Adobe Illustrator 19.0.0, SVG Export Plug-In . SVG Version: 6.00 Build 0)  -->
<svg version="1.1" id="Layer_1" xmlns="http://www.w3.org/2000/svg" xmlns:xlink="http://www.w3.org/1999/xlink" x="0px" y="0px"
	 viewBox="0 0 1719 1077" style="enable-background:new 0 0 1719 1077;" xml:space="preserve">
<style type="text/css">
	.st0{fill:#191919;}
</style>
<g>
	<g>
		<path class="st0" d="M1077.1,527.9v88.9h-31.5v-88.9H1077.1z"/>
		<path class="st0" d="M1150.7,532.2c7.8,3.9,14,9.3,18.6,16.3c4.6,6.9,6.9,14.8,6.9,23.5c0,8.7-2.3,16.5-6.9,23.5
			c-4.6,6.9-10.8,12.4-18.7,16.3c-7.9,3.9-16.5,5.9-25.9,5.9c-9.4,0-18.1-2-26-5.9c-7.9-3.9-14.1-9.4-18.8-16.3
			c-4.6-6.9-6.9-14.8-6.9-23.5c0-8.7,2.3-16.5,6.9-23.5c4.6-6.9,10.9-12.4,18.8-16.3c7.9-3.9,16.6-5.8,26-5.8
			C1134.2,526.4,1142.9,528.3,1150.7,532.2z M1110.2,557.5c-3.4,3.6-5.1,8.4-5.1,14.5c0,6,1.7,10.8,5.1,14.4
			c3.4,3.6,8.3,5.3,14.6,5.3c6.2,0,11-1.8,14.4-5.3c3.4-3.6,5.1-8.3,5.1-14.4c0-6.1-1.7-10.9-5.1-14.5c-3.4-3.6-8.2-5.3-14.4-5.3
			C1118.5,552.1,1113.6,553.9,1110.2,557.5z"/>
		<path class="st0" d="M1268.4,616.8h-31.4l-33.3-44.7v44.7h-31.5v-88.9h31.5l33.3,45.5v-45.5h31.4V616.8z"/>
		<path class="st0" d="M953.4,603.3h-33.4l-5,13.4h-33l36.7-88.9h36.3l36.5,88.9h-33.1L953.4,603.3z M945.7,582.4l-9.1-24.7
			l-9.1,24.7H945.7z"/>
		<path class="st0" d="M1040.7,527.9V550h-21.5v66.8h-31.4V550h-18.2l-9-22.1H1040.7z"/>
		<path class="st0" d="M880.2,509.2h-33.4l-5,13.4h-33l36.7-88.9h36.3l36.5,88.9h-33.1L880.2,509.2z M872.6,488.3l-9.1-24.7
			c-2.6,7-5.1,14-7.7,21c-0.5,1.2-0.9,2.5-1.4,3.7C860.5,488.3,866.5,488.3,872.6,488.3z"/>
		<path class="st0" d="M896.4,594.9c-4.3,6.8-10.3,12.1-18.2,16c-7.9,3.9-17.1,5.8-27.6,5.8h-41.8v-88.9h41.8
			c10.5,0,19.7,1.9,27.6,5.7c7.9,3.8,14,9,18.2,15.7c4.2,6.7,6.4,14.3,6.4,22.9C902.7,580.5,900.6,588.2,896.4,594.9z M864.6,586.8
			c4.2-3.4,6.2-8.3,6.2-14.7c0-6.4-2.1-11.3-6.2-14.7c-4.2-3.4-9.8-5.1-16.9-5.1h-7.5v39.7h7.5C854.9,591.9,860.5,590.2,864.6,586.8
			z"/>
		<path class="st0" d="M840.1,433.8l-36,61.9v27h-31.4v-27l-36-61.9h36c0.2,0.4,13.6,26.9,13.9,27.3c0,0,2.1,4.2,2.1,4.2
			c0,0,2.2-4.3,2.2-4.3c0.4-0.7,13.5-26.5,13.8-27.2C816.5,433.8,828.3,433.8,840.1,433.8z"/>
		<polygon class="st0" points="767.4,501.6 767.4,522.7 707.6,522.7 707.6,433.8 739.1,433.8 739.1,501.6 		"/>
		<path class="st0" d="M803.8,616.8h-31.4l-33.3-44.7v44.7h-31.4v-88.9h31.4l33.3,45.5v-45.5h31.4V616.8z"/>
		<polygon class="st0" points="481.5,550 481.5,562.3 507.8,562.3 507.8,583.3 481.5,583.3 481.5,616.8 450.1,616.8 450.1,527.9 
			520.9,527.9 520.9,550 		"/>
		<path class="st0" d="M591.4,532.2c7.8,3.9,14,9.3,18.6,16.3c4.6,6.9,6.9,14.8,6.9,23.5c0,8.7-2.3,16.5-6.9,23.5
			c-4.6,6.9-10.8,12.4-18.7,16.3c-7.9,3.9-16.5,5.9-25.9,5.9c-9.4,0-18.1-2-26-5.9c-7.9-3.9-14.1-9.4-18.8-16.3
			c-4.6-6.9-6.9-14.8-6.9-23.5c0-8.7,2.3-16.5,6.9-23.5c4.6-6.9,10.9-12.4,18.8-16.3c7.9-3.9,16.6-5.8,26-5.8
			C575,526.4,583.6,528.3,591.4,532.2z M550.9,557.5c-3.4,3.6-5.1,8.4-5.1,14.5c0,6,1.7,10.8,5.1,14.4c3.4,3.6,8.3,5.3,14.6,5.3
			c6.2,0,11-1.8,14.4-5.3c3.4-3.6,5.1-8.3,5.1-14.4c0-6.1-1.7-10.9-5.1-14.5c-3.4-3.6-8.2-5.3-14.4-5.3
			C559.2,552.1,554.3,553.9,550.9,557.5z"/>
		<path class="st0" d="M645.1,433.8v50.1c0,4.1,1,7.3,3,9.7c2,2.4,5.3,3.6,9.8,3.6s7.9-1.2,10.1-3.6c2.2-2.4,3.3-5.6,3.3-9.7v-50.1
			h31.3v50.1c0,8.5-2,15.7-6,21.7c-4,6-9.4,10.5-16.3,13.5c-6.9,3-14.6,4.5-23.1,4.5s-16-1.5-22.6-4.5c-6.6-3-11.7-7.5-15.4-13.4
			c-3.7-5.9-5.5-13.2-5.5-21.7v-50.1H645.1z"/>
		<path class="st0" d="M645.1,527.9V578c0,4.1,1,7.3,3,9.7c2,2.4,5.3,3.6,9.8,3.6s7.9-1.2,10.1-3.6c2.2-2.4,3.3-5.6,3.3-9.7v-50.1
			h31.3V578c0,8.5-2,15.7-6,21.7c-4,6-9.4,10.5-16.3,13.5c-6.9,3-14.6,4.5-23.1,4.5s-16-1.5-22.6-4.5c-6.6-3-11.7-7.5-15.4-13.4
			c-3.7-5.9-5.5-13.2-5.5-21.7v-50.1H645.1z"/>
		<path class="st0" d="M521.5,509.2H488l-5,13.4h-33l36.7-88.9H523l36.5,88.9h-33.1L521.5,509.2z M513.8,488.3l-9.1-24.7
			c-2.8,7.5-5.5,15-8.3,22.5c-0.3,0.7-0.5,1.5-0.8,2.2c0.9,0,1.8,0,2.7,0C503.5,488.3,508.7,488.3,513.8,488.3z"/>
		<polygon class="st0" points="608.8,433.8 608.8,455.9 587.3,455.9 587.3,522.7 555.8,522.7 554.8,455.9 540.6,455.9 531.6,433.8 
					"/>
	</g>
</g>
<g>
	<path d="M475.6,642.8c2.3,1.8,4,4.2,4.9,7.3h-4c-0.8-2-2-3.5-3.7-4.7c-1.7-1.2-3.7-1.7-6.2-1.7c-1.9,0-3.7,0.5-5.2,1.4
		s-2.7,2.3-3.6,4s-1.3,3.8-1.3,6.1c0,2.3,0.4,4.4,1.3,6.1s2.1,3.1,3.6,4c1.5,0.9,3.3,1.4,5.2,1.4c2.4,0,4.5-0.6,6.2-1.7
		c1.7-1.2,2.9-2.7,3.7-4.7h4c-0.9,3.1-2.5,5.5-4.9,7.3c-2.3,1.8-5.3,2.7-8.9,2.7c-2.8,0-5.2-0.6-7.3-1.9c-2.1-1.3-3.8-3-5-5.3
		c-1.2-2.3-1.8-4.9-1.8-7.8c0-2.9,0.6-5.6,1.8-7.8c1.2-2.3,2.8-4.1,5-5.3c2.1-1.3,4.6-1.9,7.3-1.9
		C470.2,640.1,473.2,641,475.6,642.8z"/>
	<path d="M500.3,648.1c1.7,1,3.1,2.3,4.1,4.1s1.5,3.9,1.5,6.3c0,2.4-0.5,4.5-1.5,6.3s-2.4,3.1-4.1,4.1c-1.7,1-3.7,1.4-5.9,1.4
		c-2.2,0-4.2-0.5-5.9-1.4c-1.7-1-3.1-2.3-4.1-4.1c-1-1.8-1.5-3.9-1.5-6.3c0-2.4,0.5-4.5,1.5-6.3c1-1.8,2.4-3.2,4.1-4.1
		c1.7-1,3.7-1.4,5.9-1.4C496.5,646.7,498.5,647.2,500.3,648.1z M490.5,651c-1.2,0.6-2.1,1.6-2.8,2.8c-0.7,1.3-1.1,2.8-1.1,4.7
		c0,1.8,0.4,3.4,1.1,4.7c0.7,1.3,1.7,2.2,2.8,2.8c1.2,0.6,2.4,0.9,3.8,0.9c1.4,0,2.6-0.3,3.8-0.9s2.1-1.6,2.8-2.8
		c0.7-1.3,1.1-2.8,1.1-4.7c0-1.9-0.4-3.4-1.1-4.7c-0.7-1.3-1.7-2.2-2.8-2.8s-2.4-0.9-3.8-0.9C493,650,491.7,650.4,490.5,651z"/>
	<path d="M513,639V670h-3.8V639H513z"/>
	<path d="M533.8,648.1c1.7,1,3.1,2.3,4.1,4.1s1.5,3.9,1.5,6.3c0,2.4-0.5,4.5-1.5,6.3s-2.4,3.1-4.1,4.1c-1.7,1-3.7,1.4-5.9,1.4
		c-2.2,0-4.2-0.5-5.9-1.4c-1.7-1-3.1-2.3-4.1-4.1c-1-1.8-1.5-3.9-1.5-6.3c0-2.4,0.5-4.5,1.5-6.3c1-1.8,2.4-3.2,4.1-4.1
		c1.7-1,3.7-1.4,5.9-1.4C530.1,646.7,532.1,647.2,533.8,648.1z M524.1,651c-1.2,0.6-2.1,1.6-2.8,2.8c-0.7,1.3-1.1,2.8-1.1,4.7
		c0,1.8,0.4,3.4,1.1,4.7c0.7,1.3,1.7,2.2,2.8,2.8c1.2,0.6,2.4,0.9,3.8,0.9c1.4,0,2.6-0.3,3.8-0.9s2.1-1.6,2.8-2.8
		c0.7-1.3,1.1-2.8,1.1-4.7c0-1.9-0.4-3.4-1.1-4.7c-0.7-1.3-1.7-2.2-2.8-2.8s-2.4-0.9-3.8-0.9C526.5,650,525.3,650.4,524.1,651z"/>
	<path d="M563.2,647v23h-3.8v-5.4c-0.6,1.9-1.6,3.3-3.1,4.3c-1.5,1-3.2,1.5-5.2,1.5c-2.7,0-4.8-0.9-6.5-2.6
		c-1.7-1.7-2.5-4.2-2.5-7.4V647h3.8v13c0,2.3,0.6,4.1,1.8,5.3c1.2,1.2,2.8,1.9,4.8,1.9c2.1,0,3.8-0.7,5-2c1.3-1.4,1.9-3.3,1.9-5.9
		V647H563.2z"/>
	<path d="M574.8,647.9c1.5-0.9,3.2-1.3,5.2-1.3v4.2h-1.2c-2.2,0-3.9,0.6-5.3,1.7c-1.4,1.1-2.1,2.9-2.1,5.5V670h-3.8v-23h3.8v4.7
		C572.2,650,573.3,648.8,574.8,647.9z"/>
	<path d="M595.6,648.7c1.6,1.4,2.5,3.2,2.9,5.5h-3.7c-0.2-1.4-0.7-2.5-1.7-3.4c-1-0.9-2.3-1.3-3.9-1.3c-1.4,0-2.4,0.3-3.2,1
		c-0.8,0.7-1.2,1.5-1.2,2.7c0,0.8,0.3,1.5,0.8,2s1.2,0.9,1.9,1.2c0.8,0.3,1.8,0.6,3.2,0.9c1.7,0.4,3.1,0.8,4.1,1.2
		c1,0.4,1.9,1.1,2.7,2c0.7,0.9,1.1,2.1,1.1,3.6c0,1.9-0.7,3.4-2.1,4.6c-1.4,1.2-3.3,1.8-5.6,1.8c-2.7,0-5-0.7-6.7-2
		c-1.7-1.3-2.8-3.1-3.1-5.5h3.7c0.1,1.4,0.7,2.5,1.8,3.4c1.1,0.9,2.5,1.3,4.3,1.3c1.3,0,2.3-0.3,3.1-1c0.7-0.7,1.1-1.6,1.1-2.6
		c0-0.9-0.3-1.6-0.8-2.1c-0.5-0.5-1.2-0.9-2-1.2c-0.8-0.3-1.9-0.6-3.2-0.9c-1.7-0.4-3.1-0.8-4.1-1.2c-1-0.4-1.9-1-2.6-1.9
		c-0.7-0.9-1.1-2-1.1-3.5c0-1.9,0.7-3.5,2.1-4.7c1.4-1.2,3.4-1.8,5.8-1.8C591.9,646.7,594,647.4,595.6,648.7z"/>
	<path d="M616.7,642.6c-0.8,0.7-1.2,2-1.2,3.8v0.6h5.5v3.4h-5.5V670h-3.8v-19.7h-3.3V647h3.3v-0.9c0-5.5,3.1-8.1,9.3-7.9v3.4
		C619,641.5,617.5,641.8,616.7,642.6z"/>
	<path d="M639.9,648.1c1.7,1,3.1,2.3,4.1,4.1s1.5,3.9,1.5,6.3c0,2.4-0.5,4.5-1.5,6.3s-2.4,3.1-4.1,4.1c-1.7,1-3.7,1.4-5.9,1.4
		c-2.2,0-4.2-0.5-5.9-1.4c-1.7-1-3.1-2.3-4.1-4.1c-1-1.8-1.5-3.9-1.5-6.3c0-2.4,0.5-4.5,1.5-6.3c1-1.8,2.4-3.2,4.1-4.1
		c1.7-1,3.7-1.4,5.9-1.4C636.1,646.7,638.1,647.2,639.9,648.1z M630.1,651c-1.2,0.6-2.1,1.6-2.8,2.8c-0.7,1.3-1.1,2.8-1.1,4.7
		c0,1.8,0.4,3.4,1.1,4.7c0.7,1.3,1.7,2.2,2.8,2.8c1.2,0.6,2.4,0.9,3.8,0.9c1.4,0,2.6-0.3,3.8-0.9s2.1-1.6,2.8-2.8
		c0.7-1.3,1.1-2.8,1.1-4.7c0-1.9-0.4-3.4-1.1-4.7c-0.7-1.3-1.7-2.2-2.8-2.8s-2.4-0.9-3.8-0.9C632.6,650,631.3,650.4,630.1,651z"/>
	<path d="M655.9,647.9c1.5-0.9,3.2-1.3,5.2-1.3v4.2h-1.2c-2.2,0-3.9,0.6-5.3,1.7c-1.4,1.1-2.1,2.9-2.1,5.5V670h-3.8v-23h3.8v4.7
		C653.4,650,654.5,648.8,655.9,647.9z"/>
	<path d="M675.7,643.5v10.1H687v2.9h-11.2v10.3h12.5v3.1h-16.3v-29.6h16.3v3.1H675.7z"/>
	<path d="M700.4,665.9l7.1-19h4.1l-9,23h-4.5l-9-23h4.1L700.4,665.9z"/>
	<path d="M734.7,659.3h-18.4c0.1,2.6,0.8,4.6,2.2,5.9c1.4,1.3,3.1,2,5.2,2c1.8,0,3.4-0.5,4.6-1.4c1.2-0.9,2-2.2,2.3-3.8h4.1
		c-0.3,1.6-0.9,3-1.9,4.3c-1,1.3-2.2,2.2-3.8,2.9c-1.5,0.7-3.3,1-5.2,1c-2.2,0-4.2-0.5-5.9-1.4s-3-2.3-4-4.1s-1.4-3.9-1.4-6.3
		c0-2.4,0.5-4.5,1.4-6.3s2.3-3.2,4-4.1s3.7-1.4,5.9-1.4c2.2,0,4.2,0.5,5.9,1.4c1.7,1,2.9,2.2,3.8,3.8s1.3,3.4,1.3,5.3
		C734.9,658,734.8,658.7,734.7,659.3z M730.2,653.2c-0.6-1.1-1.5-2-2.6-2.6c-1.1-0.6-2.3-0.8-3.7-0.8c-2.1,0-3.9,0.7-5.3,2
		s-2.2,3.2-2.3,5.7H731C731.1,655.8,730.8,654.3,730.2,653.2z"/>
	<path d="M745.3,647.9c1.5-0.9,3.2-1.3,5.2-1.3v4.2h-1.2c-2.2,0-3.9,0.6-5.3,1.7c-1.4,1.1-2.1,2.9-2.1,5.5V670h-3.8v-23h3.8v4.7
		C742.8,650,743.9,648.8,745.3,647.9z"/>
	<path d="M755.9,647l7.5,18.1l6.9-18.1h4.2l-13.7,33.9h-4.3l4.8-11.3l-9.7-22.7H755.9z"/>
	<path d="M792.7,648.1c1.7,1,3.1,2.3,4.1,4.1s1.5,3.9,1.5,6.3c0,2.4-0.5,4.5-1.5,6.3s-2.4,3.1-4.1,4.1c-1.7,1-3.7,1.4-5.9,1.4
		c-2.2,0-4.2-0.5-5.9-1.4c-1.7-1-3.1-2.3-4.1-4.1c-1-1.8-1.5-3.9-1.5-6.3c0-2.4,0.5-4.5,1.5-6.3c1-1.8,2.4-3.2,4.1-4.1
		c1.7-1,3.7-1.4,5.9-1.4C789,646.7,791,647.2,792.7,648.1z M783,651c-1.2,0.6-2.1,1.6-2.8,2.8c-0.7,1.3-1.1,2.8-1.1,4.7
		c0,1.8,0.4,3.4,1.1,4.7c0.7,1.3,1.7,2.2,2.8,2.8c1.2,0.6,2.4,0.9,3.8,0.9c1.4,0,2.6-0.3,3.8-0.9s2.1-1.6,2.8-2.8
		c0.7-1.3,1.1-2.8,1.1-4.7c0-1.9-0.4-3.4-1.1-4.7c-0.7-1.3-1.7-2.2-2.8-2.8s-2.4-0.9-3.8-0.9C785.4,650,784.2,650.4,783,651z"/>
	<path d="M820.3,649.2c1.7,1.7,2.5,4.2,2.5,7.4V670h-3.8v-13c0-2.3-0.6-4.1-1.8-5.3c-1.2-1.2-2.8-1.8-4.8-1.8c-2.1,0-3.8,0.7-5,2
		c-1.3,1.4-1.9,3.3-1.9,5.9V670h-3.8v-23h3.8v5.5c0.6-1.9,1.6-3.3,3.1-4.3c1.5-1,3.2-1.5,5.2-1.5
		C816.5,646.6,818.6,647.5,820.3,649.2z"/>
	<path d="M848,659.3h-18.4c0.1,2.6,0.8,4.6,2.2,5.9c1.4,1.3,3.1,2,5.2,2c1.8,0,3.4-0.5,4.6-1.4c1.2-0.9,2-2.2,2.3-3.8h4.1
		c-0.3,1.6-0.9,3-1.9,4.3c-1,1.3-2.2,2.2-3.8,2.9c-1.5,0.7-3.3,1-5.2,1c-2.2,0-4.2-0.5-5.9-1.4s-3-2.3-4-4.1s-1.4-3.9-1.4-6.3
		c0-2.4,0.5-4.5,1.4-6.3s2.3-3.2,4-4.1s3.7-1.4,5.9-1.4c2.2,0,4.2,0.5,5.9,1.4c1.7,1,2.9,2.2,3.8,3.8s1.3,3.4,1.3,5.3
		C848.1,658,848.1,658.7,848,659.3z M843.4,653.2c-0.6-1.1-1.5-2-2.6-2.6c-1.1-0.6-2.3-0.8-3.7-0.8c-2.1,0-3.9,0.7-5.3,2
		s-2.2,3.2-2.3,5.7h14.7C844.4,655.8,844.1,654.3,843.4,653.2z"/>
</g>
</svg>
